<?xml version="1.0" encoding="UTF-8" standalone="no"?>
<!-- Created with Inkscape (http://www.inkscape.org/) -->

<svg
   width="842.66882mm"
   height="123.52625mm"
   viewBox="0 0 842.66882 123.52625"
   version="1.1"
   id="svg1"
   inkscape:version="1.3 (0e150ed, 2023-07-21)"
   sodipodi:docname="route map.svg"
   xmlns:inkscape="http://www.inkscape.org/namespaces/inkscape"
   xmlns:sodipodi="http://sodipodi.sourceforge.net/DTD/sodipodi-0.dtd"
   xmlns="http://www.w3.org/2000/svg"
   xmlns:svg="http://www.w3.org/2000/svg">
  <sodipodi:namedview
     id="namedview1"
     pagecolor="#ffffff"
     bordercolor="#000000"
     borderopacity="0.25"
     inkscape:showpageshadow="2"
     inkscape:pageopacity="0.0"
     inkscape:pagecheckerboard="0"
     inkscape:deskcolor="#d1d1d1"
     inkscape:document-units="mm"
     inkscape:zoom="0.21398572"
     inkscape:cx="1259.4298"
     inkscape:cy="-282.72914"
     inkscape:window-width="1512"
     inkscape:window-height="862"
     inkscape:window-x="0"
     inkscape:window-y="34"
     inkscape:window-maximized="1"
     inkscape:current-layer="layer1" />
  <defs
     id="defs1" />
  <g
     inkscape:label="Layer 1"
     inkscape:groupmode="layer"
     id="layer1"
     transform="translate(-41.645618,-70.142748)">
    <g
       id="g14"
       transform="translate(0,4.2333335)"
       style="fill:#808080">
      <path
         d="m 48.904363,75.97911 q 0,1.049868 -0.756356,1.670757 -0.756357,0.609601 -2.020714,0.609601 -1.693335,0 -2.754491,-1.061157 l 0.587023,-0.587023 q 0.880534,0.880534 2.190046,0.880534 0.880534,0 1.388535,-0.395111 0.508001,-0.395112 0.508001,-1.095023 0,-0.666045 -0.383823,-1.004712 -0.316089,-0.270934 -1.049868,-0.383823 l -0.936979,-0.146756 q -0.959556,-0.158044 -1.478846,-0.6096 -0.6096,-0.541868 -0.6096,-1.501424 0,-1.02729 0.688623,-1.64818 0.699912,-0.620889 1.885246,-0.620889 1.411113,0 2.393247,0.880534 l -0.553156,0.553156 q -0.756356,-0.688623 -1.873958,-0.688623 -0.790223,0 -1.253068,0.406401 -0.440267,0.4064 -0.440267,1.083734 0,0.609601 0.361245,0.92569 0.372534,0.327378 1.083735,0.440267 l 0.880534,0.135467 q 0.982134,0.146756 1.467557,0.564445 0.677334,0.575734 0.677334,1.591735 z m 6.931377,2.212624 h -0.756356 l -1.456268,-4.31236 -1.444979,4.31236 H 51.42178 l -1.761068,-5.554139 h 0.880534 l 1.275646,4.459116 1.456268,-4.459116 h 0.699912 l 1.467557,4.459116 1.264357,-4.459116 h 0.880534 z m 6.039551,0 v -0.530578 q -0.598312,0.598312 -1.603024,0.598312 -1.072445,0 -1.569157,-0.508001 -0.417689,-0.417689 -0.417689,-1.12889 0,-0.745067 0.496711,-1.162757 0.508001,-0.440267 1.422402,-0.440267 h 1.670757 v -0.530578 q 0,-1.219201 -1.422401,-1.219201 -0.948268,0 -1.399824,0.632178 l -0.553156,-0.508 q 0.361245,-0.462845 0.835379,-0.654757 0.428978,-0.169333 1.12889,-0.169333 2.223913,0 2.223913,1.85138 v 3.770492 z m 0,-2.56258 h -1.557868 q -1.241779,0 -1.241779,0.982134 0,0.948268 1.275646,0.948268 0.857956,0 1.241779,-0.372534 0.282222,-0.270933 0.282222,-0.959556 z m 6.344352,2.56258 v -3.420536 q 0,-1.478846 -1.365957,-1.478846 -0.643468,0 -1.004712,0.372533 -0.372534,0.395112 -0.372534,1.106313 v 3.420536 h -0.812801 v -5.554139 h 0.812801 v 0.609601 q 0.598312,-0.677334 1.557868,-0.677334 0.903112,0 1.422402,0.519289 0.575733,0.564445 0.575733,1.54658 v 3.556003 z m 6.795899,-1.625601 q 0,0.790223 -0.62089,1.253068 -0.6096,0.440267 -1.63689,0.440267 -1.44498,0 -2.280358,-0.801512 l 0.541867,-0.541867 q 0.609601,0.643467 1.727202,0.643467 1.478846,0 1.478846,-0.982134 0,-0.733779 -0.92569,-0.812801 l -0.914401,-0.07902 q -1.659468,-0.135466 -1.659468,-1.490134 0,-0.745068 0.575734,-1.196624 0.564445,-0.428978 1.467557,-0.428978 1.264356,0 1.998135,0.598312 l -0.530578,0.530578 q -0.575734,-0.440267 -1.478846,-0.440267 -1.241779,0 -1.241779,0.914401 0,0.733778 0.970845,0.812801 l 0.891823,0.07902 q 1.636891,0.146756 1.636891,1.501423 z m 2.099716,-0.936979 q 0,0.914401 0.41769,1.411112 0.428978,0.508001 1.219201,0.508001 0.82409,0 1.456268,-0.632178 l 0.553156,0.485422 q -0.857956,0.857957 -2.032002,0.857957 -1.140179,0 -1.761068,-0.688623 -0.666046,-0.72249 -0.666046,-2.15618 0,-1.343379 0.609601,-2.099736 0.609601,-0.745067 1.670757,-0.745067 1.072446,0 1.682046,0.72249 0.598312,0.722489 0.598312,1.964268 v 0.372534 z m 2.935114,-0.609601 q -0.03387,-0.587023 -0.169333,-0.92569 -0.349956,-0.835378 -1.298224,-0.835378 -0.948267,0 -1.298223,0.835378 -0.135467,0.338667 -0.169334,0.92569 z m 5.689594,3.172181 v -0.530578 q -0.598312,0.598312 -1.603024,0.598312 -1.072446,0 -1.569157,-0.508001 -0.41769,-0.417689 -0.41769,-1.12889 0,-0.745067 0.496712,-1.162757 0.508,-0.440267 1.422401,-0.440267 h 1.670758 v -0.530578 q 0,-1.219201 -1.422402,-1.219201 -0.948267,0 -1.399823,0.632178 l -0.553157,-0.508 q 0.361245,-0.462845 0.835379,-0.654757 0.428978,-0.169333 1.12889,-0.169333 2.223914,0 2.223914,1.85138 v 3.770492 z m 0,-2.56258 h -1.557869 q -1.241779,0 -1.241779,0.982134 0,0.948268 1.275646,0.948268 0.857957,0 1.241779,-0.372534 0.282223,-0.270933 0.282223,-0.959556 z"
         id="text1"
         style="font-size:11.2889px;font-family:DIN;-inkscape-font-specification:DIN;text-align:center;letter-spacing:0px;word-spacing:0px;text-anchor:middle;stroke-linejoin:round;stroke-miterlimit:3.9;stroke-dasharray:1, 1;paint-order:markers stroke fill;fill:#808080"
         aria-label="Swansea" />
      <path
         d="m 47.357802,91.749176 -0.643467,-1.817513 h -3.510848 l -0.643468,1.817513 h -0.914401 l 2.957692,-8.037697 h 0.72249 l 2.946403,8.037697 z m -2.381958,-6.807207 -1.512713,4.244627 h 3.002848 z m 8.861766,4.030138 q 0,1.682046 -0.677334,2.35938 -0.485423,0.485422 -1.354668,0.485422 -1.004712,0 -1.569157,-0.733778 v 0.666045 H 49.42365 v -8.037697 h 0.812801 v 3.127025 q 0.553156,-0.7112 1.569157,-0.7112 0.869245,0 1.354668,0.485422 0.677334,0.677334 0.677334,2.359381 z m -0.812801,0 q 0,-0.982135 -0.237067,-1.467558 -0.327378,-0.654756 -1.151468,-0.654756 -0.82409,0 -1.151468,0.654756 -0.248355,0.485423 -0.248355,1.467558 0,0.982134 0.248355,1.467557 0.327378,0.654756 1.151468,0.654756 0.82409,0 1.151468,-0.654756 0.237067,-0.485423 0.237067,-1.467557 z m 3.059271,0.214489 q 0,0.914401 0.417689,1.411112 0.428978,0.508001 1.219201,0.508001 0.82409,0 1.456269,-0.632179 l 0.553156,0.485423 q -0.857957,0.857956 -2.032002,0.857956 -1.140179,0 -1.761069,-0.688622 -0.666045,-0.72249 -0.666045,-2.15618 0,-1.34338 0.609601,-2.099736 0.6096,-0.745067 1.670757,-0.745067 1.072445,0 1.682046,0.722489 0.598312,0.72249 0.598312,1.964269 v 0.372534 z m 2.935114,-0.609601 q -0.03387,-0.587023 -0.169334,-0.92569 -0.349956,-0.835378 -1.298223,-0.835378 -0.948268,0 -1.298224,0.835378 -0.135466,0.338667 -0.169333,0.92569 z m 5.644438,-1.320801 q -0.406401,-0.406401 -0.959557,-0.406401 -0.598312,0 -0.970845,0.428978 -0.361245,0.41769 -0.361245,1.061157 v 3.409248 h -0.812801 v -5.554139 h 0.812801 v 0.677334 q 0.485423,-0.745067 1.557868,-0.745067 0.812801,0 1.33209,0.519289 z m 3.206041,4.492982 q -0.688623,0 -1.061157,-0.440267 -0.361244,-0.395112 -0.361244,-1.049868 V 86.849793 H 65.74736 v -0.620889 h 0.699912 v -1.738491 h 0.8128 v 1.738491 h 1.185335 v 0.620889 h -1.185335 v 3.38667 q 0,0.812801 0.756357,0.812801 h 0.428978 v 0.699912 z m 5.249311,0 v -0.530578 q -0.598312,0.598311 -1.603024,0.598311 -1.072446,0 -1.569157,-0.508 -0.41769,-0.417689 -0.41769,-1.12889 0,-0.745068 0.496712,-1.162757 0.508,-0.440267 1.422401,-0.440267 h 1.670758 v -0.530578 q 0,-1.219202 -1.422402,-1.219202 -0.948268,0 -1.399824,0.632179 l -0.553156,-0.508001 q 0.361245,-0.462845 0.835379,-0.654756 0.428978,-0.169333 1.12889,-0.169333 2.223913,0 2.223913,1.851379 v 3.770493 z m 0,-2.56258 h -1.557869 q -1.241779,0 -1.241779,0.982134 0,0.948268 1.275646,0.948268 0.857956,0 1.241779,-0.372534 0.282223,-0.270934 0.282223,-0.959557 z m 8.071554,2.56258 h -0.756357 l -1.456268,-4.31236 -1.444979,4.31236 h -0.756356 l -1.761069,-5.554139 h 0.880534 l 1.275646,4.459116 1.456268,-4.459116 h 0.699912 l 1.467557,4.459116 1.264357,-4.459116 h 0.880534 z m 3.34149,-2.56258 q 0,0.914401 0.41769,1.411112 0.428978,0.508001 1.219201,0.508001 0.82409,0 1.456268,-0.632179 l 0.553156,0.485423 q -0.857956,0.857956 -2.032002,0.857956 -1.140179,0 -1.761068,-0.688622 -0.666046,-0.72249 -0.666046,-2.15618 0,-1.34338 0.609601,-2.099736 0.609601,-0.745067 1.670757,-0.745067 1.072446,0 1.682046,0.722489 0.598312,0.72249 0.598312,1.964269 v 0.372534 z m 2.935114,-0.609601 q -0.03387,-0.587023 -0.169333,-0.92569 -0.349956,-0.835378 -1.298224,-0.835378 -0.948267,0 -1.298223,0.835378 -0.135467,0.338667 -0.169334,0.92569 z"
         id="text2"
         style="font-size:11.2889px;font-family:DIN;-inkscape-font-specification:DIN;text-align:center;letter-spacing:0px;word-spacing:0px;text-anchor:middle;stroke-linejoin:round;stroke-miterlimit:3.9;stroke-dasharray:1, 1;paint-order:markers stroke fill;fill:#808080"
         aria-label="Abertawe" />
    </g>
    <g
       id="g15"
       transform="translate(15.241193,4.2333335)">
      <path
         d="m 129.76309,75.866221 q -0.19191,1.117601 -0.94827,1.761068 -0.75635,0.632179 -1.84009,0.632179 -1.2192,0 -2.05458,-0.835379 -0.51929,-0.519289 -0.66604,-1.275646 -0.0903,-0.496711 -0.0903,-1.975557 0,-1.478846 0.0903,-1.986847 0.14675,-0.745067 0.66604,-1.264357 0.83538,-0.835378 2.05458,-0.835378 1.09502,0 1.84009,0.632178 0.74507,0.632179 0.94827,1.761069 h -0.88053 q -0.15805,-0.745068 -0.65476,-1.185335 -0.508,-0.440267 -1.25307,-0.440267 -0.84667,0 -1.38853,0.564445 -0.36125,0.372534 -0.47414,0.936979 -0.0903,0.496711 -0.0903,1.817513 0,1.320801 0.0903,1.817513 0.11289,0.564445 0.47414,0.936978 0.54186,0.564445 1.38853,0.564445 0.74507,0 1.26436,-0.440267 0.508,-0.440267 0.66604,-1.185334 z m 4.89937,2.325513 v -0.530578 q -0.59831,0.598312 -1.60302,0.598312 -1.07245,0 -1.56916,-0.508001 -0.41769,-0.417689 -0.41769,-1.12889 0,-0.745067 0.49671,-1.162757 0.508,-0.440267 1.4224,-0.440267 h 1.67076 v -0.530578 q 0,-1.219201 -1.4224,-1.219201 -0.94827,0 -1.39982,0.632178 l -0.55316,-0.508 q 0.36125,-0.462845 0.83538,-0.654757 0.42898,-0.169333 1.12889,-0.169333 2.22391,0 2.22391,1.85138 v 3.770492 z m 0,-2.56258 h -1.55787 q -1.24178,0 -1.24178,0.982134 0,0.948268 1.27565,0.948268 0.85796,0 1.24178,-0.372534 0.28222,-0.270933 0.28222,-0.959556 z m 5.8928,-1.930402 q -0.4064,-0.4064 -0.95956,-0.4064 -0.59831,0 -0.97084,0.428978 -0.36125,0.417689 -0.36125,1.061156 v 3.409248 h -0.8128 v -5.554139 h 0.8128 v 0.677334 q 0.48542,-0.745067 1.55787,-0.745067 0.8128,0 1.33209,0.519289 z m 4.58328,4.492982 v -0.666045 q -0.56444,0.733779 -1.58045,0.733779 -0.86924,0 -1.35466,-0.485423 -0.67734,-0.677334 -0.67734,-2.35938 0,-1.682046 0.67734,-2.35938 0.48542,-0.485423 1.35466,-0.485423 1.01601,0 1.56916,0.711201 v -3.127026 h 0.8128 v 8.037697 z m -0.0113,-2.777069 q 0,-0.982135 -0.23707,-1.467557 -0.32737,-0.654756 -1.15146,-0.654756 -0.82409,0 -1.15147,0.654756 -0.24836,0.485422 -0.24836,1.467557 0,0.982134 0.24836,1.467557 0.32738,0.654756 1.15147,0.654756 0.82409,0 1.15146,-0.654756 0.23707,-0.485423 0.23707,-1.467557 z m 2.79963,-4.357516 v -0.914401 h 0.9144 v 0.914401 z m 0.0452,7.134585 v -5.554139 h 0.8128 v 5.554139 z m 3.84949,-4.899382 v 4.899382 h -0.8128 v -4.899382 h -0.7112 v -0.62089 h 0.7112 v -1.049868 q 0,-0.654756 0.34996,-1.049867 0.38382,-0.440268 1.06115,-0.440268 h 0.58702 v 0.699912 h -0.44026 q -0.74507,0 -0.74507,0.812801 v 1.02729 h 1.18533 v 0.62089 z m 3.54471,0 v 4.899382 h -0.8128 v -4.899382 h -0.71121 v -0.62089 h 0.71121 v -1.049868 q 0,-0.654756 0.34995,-1.049867 0.38382,-0.440268 1.06116,-0.440268 h 0.58702 v 0.699912 h -0.44027 q -0.74506,0 -0.74506,0.812801 v 1.02729 h 1.18533 v 0.62089 z m 10.80345,2.573869 q -0.19191,1.117601 -0.94827,1.761068 -0.75635,0.632179 -1.84009,0.632179 -1.2192,0 -2.05458,-0.835379 -0.51929,-0.519289 -0.66604,-1.275646 -0.0903,-0.496711 -0.0903,-1.975557 0,-1.478846 0.0903,-1.986847 0.14675,-0.745067 0.66604,-1.264357 0.83538,-0.835378 2.05458,-0.835378 1.09503,0 1.84009,0.632178 0.74507,0.632179 0.94827,1.761069 h -0.88053 q -0.15805,-0.745068 -0.65476,-1.185335 -0.508,-0.440267 -1.25307,-0.440267 -0.84667,0 -1.38853,0.564445 -0.36125,0.372534 -0.47414,0.936979 -0.0903,0.496711 -0.0903,1.817513 0,1.320801 0.0903,1.817513 0.11289,0.564445 0.47414,0.936978 0.54186,0.564445 1.38853,0.564445 0.74507,0 1.26436,-0.440267 0.508,-0.440267 0.66604,-1.185334 z m 2.25777,-0.237067 q 0,0.914401 0.41769,1.411112 0.42898,0.508001 1.2192,0.508001 0.82409,0 1.45627,-0.632178 l 0.55315,0.485422 q -0.85795,0.857957 -2.032,0.857957 -1.14018,0 -1.76107,-0.688623 -0.66604,-0.72249 -0.66604,-2.15618 0,-1.343379 0.6096,-2.099736 0.6096,-0.745067 1.67075,-0.745067 1.07245,0 1.68205,0.72249 0.59831,0.722489 0.59831,1.964268 v 0.372534 z m 2.93511,-0.609601 q -0.0339,-0.587023 -0.16933,-0.92569 -0.34996,-0.835378 -1.29823,-0.835378 -0.94826,0 -1.29822,0.835378 -0.13547,0.338667 -0.16933,0.92569 z m 6.096,3.172181 v -3.420536 q 0,-1.478846 -1.36596,-1.478846 -0.64347,0 -1.00471,0.372533 -0.37254,0.395112 -0.37254,1.106313 v 3.420536 h -0.8128 v -5.554139 h 0.8128 v 0.609601 q 0.59831,-0.677334 1.55787,-0.677334 0.90311,0 1.4224,0.519289 0.57574,0.564445 0.57574,1.54658 v 3.556003 z m 4.34621,0 q -0.68863,0 -1.06116,-0.440267 -0.36125,-0.395111 -0.36125,-1.049868 v -3.409247 h -0.69991 v -0.62089 h 0.69991 v -1.738491 h 0.8128 v 1.738491 h 1.18534 v 0.62089 h -1.18534 v 3.38667 q 0,0.8128 0.75636,0.8128 h 0.42898 v 0.699912 z m 5.29448,-4.492982 q -0.4064,-0.4064 -0.95956,-0.4064 -0.59831,0 -0.97085,0.428978 -0.36124,0.417689 -0.36124,1.061156 v 3.409248 h -0.8128 v -5.554139 h 0.8128 v 0.677334 q 0.48542,-0.745067 1.55787,-0.745067 0.8128,0 1.33209,0.519289 z m 4.68488,4.492982 v -0.530578 q -0.59831,0.598312 -1.60302,0.598312 -1.07245,0 -1.56916,-0.508001 -0.41769,-0.417689 -0.41769,-1.12889 0,-0.745067 0.49671,-1.162757 0.508,-0.440267 1.4224,-0.440267 h 1.67076 v -0.530578 q 0,-1.219201 -1.4224,-1.219201 -0.94827,0 -1.39982,0.632178 l -0.55316,-0.508 q 0.36124,-0.462845 0.83538,-0.654757 0.42898,-0.169333 1.12889,-0.169333 2.22391,0 2.22391,1.85138 v 3.770492 z m 0,-2.56258 h -1.55787 q -1.24178,0 -1.24178,0.982134 0,0.948268 1.27565,0.948268 0.85796,0 1.24178,-0.372534 0.28222,-0.270933 0.28222,-0.959556 z m 4.17688,2.56258 q -0.69991,0 -1.07244,-0.417689 -0.33867,-0.395112 -0.33867,-1.061157 v -6.558851 h 0.8128 v 6.524985 q 0,0.8128 0.74507,0.8128 h 0.44027 v 0.699912 z"
         id="text3"
         style="font-size:11.2889px;font-family:DIN;-inkscape-font-specification:DIN;text-align:center;letter-spacing:0px;word-spacing:0px;text-anchor:middle;stroke-linejoin:round;stroke-miterlimit:3.9;stroke-dasharray:1, 1;paint-order:markers stroke fill"
         aria-label="Cardiff Central" />
      <path
         d="m 121.36416,89.423663 q -0.19191,1.117601 -0.94827,1.761068 -0.75635,0.632178 -1.84009,0.632178 -1.2192,0 -2.05458,-0.835378 -0.51929,-0.51929 -0.66604,-1.275646 -0.0903,-0.496712 -0.0903,-1.975558 0,-1.478845 0.0903,-1.986846 0.14675,-0.745067 0.66604,-1.264357 0.83538,-0.835378 2.05458,-0.835378 1.09503,0 1.84009,0.632178 0.74507,0.632178 0.94827,1.761068 h -0.88053 q -0.15805,-0.745067 -0.65476,-1.185334 -0.508,-0.440267 -1.25307,-0.440267 -0.84666,0 -1.38853,0.564445 -0.36125,0.372534 -0.47413,0.936979 -0.0903,0.496711 -0.0903,1.817512 0,1.320802 0.0903,1.817513 0.11288,0.564445 0.47413,0.936979 0.54187,0.564445 1.38853,0.564445 0.74507,0 1.26436,-0.440267 0.508,-0.440267 0.66605,-1.185334 z m 4.89938,2.325513 v -0.530578 q -0.59832,0.598311 -1.60303,0.598311 -1.07244,0 -1.56916,-0.508 -0.41769,-0.417689 -0.41769,-1.12889 0,-0.745068 0.49672,-1.162757 0.508,-0.440267 1.4224,-0.440267 h 1.67076 v -0.530578 q 0,-1.219202 -1.42241,-1.219202 -0.94826,0 -1.39982,0.632179 l -0.55316,-0.508001 q 0.36125,-0.462845 0.83538,-0.654756 0.42898,-0.169333 1.12889,-0.169333 2.22392,0 2.22392,1.851379 v 3.770493 z m 0,-2.56258 h -1.55787 q -1.24178,0 -1.24178,0.982134 0,0.948268 1.27564,0.948268 0.85796,0 1.24178,-0.372534 0.28223,-0.270934 0.28223,-0.959557 z m 3.29634,0 q 0,0.914401 0.41769,1.411112 0.42898,0.508001 1.2192,0.508001 0.82409,0 1.45627,-0.632179 l 0.55316,0.485423 q -0.85796,0.857956 -2.032,0.857956 -1.14018,0 -1.76107,-0.688622 -0.66605,-0.72249 -0.66605,-2.15618 0,-1.34338 0.6096,-2.099736 0.6096,-0.745067 1.67076,-0.745067 1.07245,0 1.68205,0.722489 0.59831,0.72249 0.59831,1.964269 v 0.372534 z m 2.93512,-0.609601 q -0.0339,-0.587023 -0.16934,-0.92569 -0.34995,-0.835378 -1.29822,-0.835378 -0.94827,0 -1.29822,0.835378 -0.13547,0.338667 -0.16934,0.92569 z m 5.64443,-1.320801 q -0.4064,-0.406401 -0.95955,-0.406401 -0.59831,0 -0.97085,0.428978 -0.36124,0.41769 -0.36124,1.061157 v 3.409248 h -0.8128 v -5.554139 h 0.8128 v 0.677334 q 0.48542,-0.745067 1.55787,-0.745067 0.8128,0 1.33209,0.519289 z m 4.58329,4.492982 v -0.666045 q -0.56445,0.733778 -1.58045,0.733778 -0.86924,0 -1.35467,-0.485422 -0.67733,-0.677334 -0.67733,-2.35938 0,-1.682047 0.67733,-2.359381 0.48543,-0.485422 1.35467,-0.485422 1.016,0 1.56916,0.7112 v -3.127025 h 0.8128 v 8.037697 z m -0.0113,-2.777069 q 0,-0.982135 -0.23707,-1.467558 -0.32738,-0.654756 -1.15147,-0.654756 -0.82408,0 -1.15146,0.654756 -0.24836,0.485423 -0.24836,1.467558 0,0.982134 0.24836,1.467557 0.32738,0.654756 1.15146,0.654756 0.82409,0 1.15147,-0.654756 0.23707,-0.485423 0.23707,-1.467557 z m 4.22203,4.120448 q -0.15805,0.440267 -0.39511,0.654756 -0.39512,0.383823 -1.08374,0.383823 h -0.34995 v -0.72249 h 0.24835 q 0.4064,0 0.59831,-0.158044 0.18063,-0.135467 0.31609,-0.530579 l 0.39511,-1.083734 -1.99813,-5.44125 h 0.88053 l 1.524,4.459116 1.51272,-4.459116 h 0.88053 z m 6.98781,-1.343379 v -0.666045 q -0.56445,0.733778 -1.58045,0.733778 -0.86924,0 -1.35466,-0.485422 -0.67734,-0.677334 -0.67734,-2.35938 0,-1.682047 0.67734,-2.359381 0.48542,-0.485422 1.35466,-0.485422 1.016,0 1.56916,0.7112 v -3.127025 h 0.8128 v 8.037697 z m -0.0113,-2.777069 q 0,-0.982135 -0.23707,-1.467558 -0.32737,-0.654756 -1.15146,-0.654756 -0.82409,0 -1.15147,0.654756 -0.24836,0.485423 -0.24836,1.467558 0,0.982134 0.24836,1.467557 0.32738,0.654756 1.15147,0.654756 0.82409,0 1.15146,-0.654756 0.23707,-0.485423 0.23707,-1.467557 z m 6.16372,2.777069 v -0.666045 q -0.56444,0.733778 -1.58044,0.733778 -0.86925,0 -1.35467,-0.485422 -0.67734,-0.677334 -0.67734,-2.35938 0,-1.682047 0.67734,-2.359381 0.48542,-0.485422 1.35467,-0.485422 1.016,0 1.56915,0.7112 v -3.127025 h 0.8128 v 8.037697 z m -0.0113,-2.777069 q 0,-0.982135 -0.23706,-1.467558 -0.32738,-0.654756 -1.15147,-0.654756 -0.82409,0 -1.15147,0.654756 -0.24836,0.485423 -0.24836,1.467558 0,0.982134 0.24836,1.467557 0.32738,0.654756 1.15147,0.654756 0.82409,0 1.15147,-0.654756 0.23706,-0.485423 0.23706,-1.467557 z m 11.09695,0.451556 q -0.19191,1.117601 -0.94826,1.761068 -0.75636,0.632178 -1.8401,0.632178 -1.2192,0 -2.05458,-0.835378 -0.51928,-0.51929 -0.66604,-1.275646 -0.0903,-0.496712 -0.0903,-1.975558 0,-1.478845 0.0903,-1.986846 0.14676,-0.745067 0.66604,-1.264357 0.83538,-0.835378 2.05458,-0.835378 1.09503,0 1.8401,0.632178 0.74506,0.632178 0.94826,1.761068 h -0.88053 q -0.15805,-0.745067 -0.65476,-1.185334 -0.508,-0.440267 -1.25307,-0.440267 -0.84666,0 -1.38853,0.564445 -0.36125,0.372534 -0.47413,0.936979 -0.0903,0.496711 -0.0903,1.817512 0,1.320802 0.0903,1.817513 0.11288,0.564445 0.47413,0.936979 0.54187,0.564445 1.38853,0.564445 0.74507,0 1.26436,-0.440267 0.508,-0.440267 0.66605,-1.185334 z m 4.89938,2.325513 v -0.530578 q -0.59831,0.598311 -1.60303,0.598311 -1.07244,0 -1.56915,-0.508 -0.41769,-0.417689 -0.41769,-1.12889 0,-0.745068 0.49671,-1.162757 0.508,-0.440267 1.4224,-0.440267 h 1.67076 v -0.530578 q 0,-1.219202 -1.4224,-1.219202 -0.94827,0 -1.39983,0.632179 l -0.55315,-0.508001 q 0.36124,-0.462845 0.83537,-0.654756 0.42898,-0.169333 1.12889,-0.169333 2.22392,0 2.22392,1.851379 v 3.770493 z m 0,-2.56258 h -1.55787 q -1.24178,0 -1.24178,0.982134 0,0.948268 1.27565,0.948268 0.85795,0 1.24177,-0.372534 0.28223,-0.270934 0.28223,-0.959557 z m 6.34435,2.56258 v -3.420537 q 0,-1.478846 -1.36596,-1.478846 -0.64347,0 -1.00471,0.372534 -0.37254,0.395111 -0.37254,1.106312 v 3.420537 h -0.8128 v -5.554139 h 0.8128 v 0.609601 q 0.59832,-0.677334 1.55787,-0.677334 0.90312,0 1.4224,0.519289 0.57574,0.564445 0.57574,1.546579 v 3.556004 z m 7.03297,-2.777069 q 0,1.524001 -0.67734,2.212624 -0.63218,0.632178 -1.59173,0.632178 -0.95956,0 -1.59174,-0.632178 -0.67733,-0.688623 -0.67733,-2.212624 0,-1.524002 0.67733,-2.212625 0.63218,-0.632178 1.59174,-0.632178 0.95955,0 1.59173,0.632178 0.67734,0.688623 0.67734,2.212625 z m -0.81281,0 q 0,-0.598312 -0.0677,-0.936979 -0.1016,-0.508001 -0.37253,-0.778934 -0.4064,-0.406401 -1.016,-0.406401 -0.59832,0 -1.00472,0.406401 -0.27093,0.270933 -0.37253,0.778934 -0.079,0.349956 -0.079,0.936979 0,0.587022 0.079,0.936978 0.1016,0.508001 0.37253,0.778934 0.4064,0.406401 1.00472,0.406401 0.6096,0 1.016,-0.406401 0.27093,-0.270933 0.37253,-0.778934 0.0677,-0.338667 0.0677,-0.936978 z m 3.93981,2.777069 q -0.69991,0 -1.07244,-0.417689 -0.33867,-0.395112 -0.33867,-1.061157 v -6.558851 h 0.8128 v 6.524984 q 0,0.812801 0.74507,0.812801 h 0.44027 v 0.699912 z m 5.98311,-2.777069 q 0,1.524001 -0.67733,2.212624 -0.63218,0.632178 -1.59174,0.632178 -0.95955,0 -1.59173,-0.632178 -0.67734,-0.688623 -0.67734,-2.212624 0,-1.524002 0.67734,-2.212625 0.63218,-0.632178 1.59173,-0.632178 0.95956,0 1.59174,0.632178 0.67733,0.688623 0.67733,2.212625 z m -0.8128,0 q 0,-0.598312 -0.0677,-0.936979 -0.1016,-0.508001 -0.37254,-0.778934 -0.4064,-0.406401 -1.016,-0.406401 -0.59831,0 -1.00471,0.406401 -0.27093,0.270933 -0.37253,0.778934 -0.079,0.349956 -0.079,0.936979 0,0.587022 0.079,0.936978 0.1016,0.508001 0.37253,0.778934 0.4064,0.406401 1.00471,0.406401 0.6096,0 1.016,-0.406401 0.27094,-0.270933 0.37254,-0.778934 0.0677,-0.338667 0.0677,-0.936978 z m 6.64915,2.946403 q 0,1.049867 -0.6096,1.704623 -0.63218,0.677335 -1.70463,0.677335 -1.06116,0 -1.88525,-0.745068 l 0.53058,-0.519289 q 0.62089,0.553156 1.33209,0.553156 0.76765,0 1.16276,-0.496712 0.36124,-0.451556 0.36124,-1.207912 v -0.869245 q -0.56444,0.722489 -1.55786,0.722489 -0.84667,0 -1.34338,-0.496711 -0.67734,-0.677335 -0.67734,-2.314225 0,-1.636891 0.67734,-2.314225 0.48542,-0.485422 1.35467,-0.485422 1.00471,0 1.55786,0.722489 v -0.654756 h 0.80152 z m -0.81281,-2.991559 q 0,-0.948268 -0.23706,-1.43369 -0.31609,-0.643468 -1.14018,-0.643468 -0.82409,0 -1.15147,0.643468 -0.23707,0.485422 -0.23707,1.43369 0,0.948268 0.23707,1.422401 0.32738,0.654757 1.15147,0.654757 0.82409,0 1.14018,-0.654757 0.23706,-0.474133 0.23706,-1.422401 z"
         id="text4"
         style="font-size:11.2889px;font-family:DIN;-inkscape-font-specification:DIN;text-align:center;letter-spacing:0px;word-spacing:0px;text-anchor:middle;stroke-linejoin:round;stroke-miterlimit:3.9;stroke-dasharray:1, 1;paint-order:markers stroke fill"
         aria-label="Caerdydd Canolog" />
    </g>
    <path
       d="m 252.16164,93.7586 q 0,1.072446 -0.66605,1.659468 -0.63218,0.564445 -1.7272,0.564445 h -3.12703 v -8.037697 h 3.02543 q 1.06116,0 1.71591,0.564445 0.65476,0.587023 0.65476,1.580446 0,0.62089 -0.33867,1.106313 -0.32738,0.462845 -0.84667,0.654756 1.30952,0.485423 1.30952,1.907824 z m -0.98214,-3.657604 q 0,-0.688623 -0.45155,-1.049867 -0.41769,-0.338667 -1.12889,-0.338667 h -2.09974 v 2.788358 h 2.09974 q 0.69991,0 1.12889,-0.338667 0.45155,-0.372534 0.45155,-1.061157 z m 0.12418,3.635026 q 0,-0.677334 -0.42898,-1.072445 -0.44027,-0.395112 -1.18533,-0.395112 h -2.19005 v 2.946403 h 2.19005 q 0.74506,0 1.18533,-0.4064 0.42898,-0.395112 0.42898,-1.072446 z m 5.83635,-2.246491 q -0.4064,-0.4064 -0.95955,-0.4064 -0.59832,0 -0.97085,0.428978 -0.36124,0.417689 -0.36124,1.061157 v 3.409247 h -0.81281 v -5.554139 h 0.81281 v 0.677334 q 0.48542,-0.745067 1.55786,-0.745067 0.8128,0 1.33209,0.519289 z m 1.60302,-2.641603 v -0.914401 h 0.9144 v 0.914401 z m 0.0452,7.134585 v -5.554139 h 0.8128 v 5.554139 z m 6.86363,-1.625601 q 0,0.790223 -0.62089,1.253068 -0.6096,0.440267 -1.63689,0.440267 -1.44498,0 -2.28036,-0.801512 l 0.54187,-0.541867 q 0.6096,0.643467 1.7272,0.643467 1.47885,0 1.47885,-0.982134 0,-0.733779 -0.92569,-0.812801 l -0.9144,-0.07902 q -1.65947,-0.135467 -1.65947,-1.490135 0,-0.745068 0.57573,-1.196624 0.56445,-0.428978 1.46756,-0.428978 1.26435,0 1.99813,0.598312 l -0.53058,0.530578 q -0.57573,-0.440267 -1.47884,-0.440267 -1.24178,0 -1.24178,0.914401 0,0.733778 0.97085,0.812801 l 0.89182,0.07902 q 1.63689,0.146756 1.63689,1.501424 z m 3.03669,1.625601 q -0.68862,0 -1.06115,-0.440267 -0.36125,-0.395111 -0.36125,-1.049867 v -3.409248 h -0.69991 v -0.62089 h 0.69991 V 88.72375 h 0.8128 v 1.738491 h 1.18534 v 0.62089 h -1.18534 v 3.38667 q 0,0.812801 0.75636,0.812801 h 0.42898 v 0.699911 z m 6.34434,-2.777069 q 0,1.524001 -0.67734,2.212624 -0.63218,0.632179 -1.59173,0.632179 -0.95956,0 -1.59174,-0.632179 -0.67733,-0.688623 -0.67733,-2.212624 0,-1.524002 0.67733,-2.212625 0.63218,-0.632178 1.59174,-0.632178 0.95955,0 1.59173,0.632178 0.67734,0.688623 0.67734,2.212625 z m -0.8128,0 q 0,-0.598312 -0.0677,-0.936979 -0.1016,-0.508 -0.37253,-0.778934 -0.4064,-0.4064 -1.016,-0.4064 -0.59831,0 -1.00471,0.4064 -0.27094,0.270934 -0.37254,0.778934 -0.079,0.349956 -0.079,0.936979 0,0.587023 0.079,0.936979 0.1016,0.508 0.37254,0.778934 0.4064,0.4064 1.00471,0.4064 0.6096,0 1.016,-0.4064 0.27093,-0.270934 0.37253,-0.778934 0.0677,-0.338667 0.0677,-0.936979 z m 3.93981,2.777069 q -0.69991,0 -1.07245,-0.417689 -0.33866,-0.395111 -0.33866,-1.061157 v -6.558851 h 0.8128 v 6.524985 q 0,0.812801 0.74506,0.812801 h 0.44027 v 0.699911 z m 10.39705,-5.678316 q 0,1.072445 -0.68862,1.727201 -0.68863,0.643468 -1.79494,0.643468 h -2.1336 v 3.307647 h -0.85796 v -8.037697 h 2.99156 q 1.10631,0 1.79494,0.632179 0.68862,0.654756 0.68862,1.727202 z m -0.85796,0 q 0,-0.778935 -0.47413,-1.196624 -0.45156,-0.395111 -1.23049,-0.395111 h -2.05458 v 3.194758 h 2.05458 q 0.77893,0 1.23049,-0.4064 0.47413,-0.417689 0.47413,-1.196623 z m 5.3848,5.678316 v -0.530578 q -0.59831,0.598312 -1.60303,0.598312 -1.07244,0 -1.56915,-0.508001 -0.41769,-0.417689 -0.41769,-1.12889 0,-0.745067 0.49671,-1.162756 0.508,-0.440268 1.4224,-0.440268 h 1.67076 v -0.530578 q 0,-1.219201 -1.4224,-1.219201 -0.94827,0 -1.39983,0.632178 l -0.55315,-0.508 q 0.36124,-0.462845 0.83537,-0.654756 0.42898,-0.169334 1.12889,-0.169334 2.22392,0 2.22392,1.85138 v 3.770492 z m 0,-2.56258 h -1.55787 q -1.24178,0 -1.24178,0.982134 0,0.948268 1.27565,0.948268 0.85795,0 1.24177,-0.372534 0.28223,-0.270933 0.28223,-0.959556 z m 5.89279,-1.930402 q -0.4064,-0.4064 -0.95955,-0.4064 -0.59832,0 -0.97085,0.428978 -0.36125,0.417689 -0.36125,1.061157 v 3.409247 h -0.8128 v -5.554139 h 0.8128 v 0.677334 q 0.48543,-0.745067 1.55787,-0.745067 0.8128,0 1.33209,0.519289 z m 5.30578,4.492982 -1.76107,-2.844802 -1.08373,1.241779 v 1.603023 h -0.81281 v -8.037697 h 0.81281 v 5.373517 l 2.50613,-2.889959 h 1.016 l -1.88524,2.122314 2.21262,3.431825 z m 7.67644,0 h -0.75635 l -1.45627,-4.31236 -1.44498,4.31236 h -0.75636 l -1.76107,-5.554139 h 0.88054 l 1.27564,4.459116 1.45627,-4.459116 h 0.69991 l 1.46756,4.459116 1.26436,-4.459116 h 0.88053 z m 6.03956,0 v -0.530578 q -0.59831,0.598312 -1.60303,0.598312 -1.07244,0 -1.56915,-0.508001 -0.41769,-0.417689 -0.41769,-1.12889 0,-0.745067 0.49671,-1.162756 0.508,-0.440268 1.4224,-0.440268 h 1.67076 v -0.530578 q 0,-1.219201 -1.4224,-1.219201 -0.94827,0 -1.39983,0.632178 l -0.55315,-0.508 q 0.36124,-0.462845 0.83537,-0.654756 0.42898,-0.169334 1.12889,-0.169334 2.22392,0 2.22392,1.85138 v 3.770492 z m 0,-2.56258 h -1.55787 q -1.24178,0 -1.24178,0.982134 0,0.948268 1.27565,0.948268 0.85795,0 1.24177,-0.372534 0.28223,-0.270933 0.28223,-0.959556 z m 4.16559,3.90596 q -0.15804,0.440267 -0.39511,0.654756 -0.39511,0.383822 -1.08374,0.383822 h -0.34995 v -0.722489 h 0.24835 q 0.4064,0 0.59832,-0.158045 0.18062,-0.135467 0.31608,-0.530578 l 0.39512,-1.083735 -1.99814,-5.44125 h 0.88053 l 1.52401,4.459116 1.51271,-4.459116 h 0.88053 z"
       id="text5"
       style="font-size:11.2889px;font-family:DIN;-inkscape-font-specification:DIN;text-align:center;letter-spacing:0px;word-spacing:0px;text-anchor:middle;stroke-linejoin:round;stroke-miterlimit:3.9;stroke-dasharray:1, 1;paint-order:markers stroke fill"
       aria-label="Bristol Parkway" />
    <path
       d="m 381.32099,95.982513 -1.8288,-3.567292 h -1.9304 v 3.567292 h -0.85796 v -8.037697 h 3.08187 q 1.06116,0 1.71592,0.598312 0.66604,0.609601 0.66604,1.636891 0,0.857956 -0.48542,1.43369 -0.46285,0.553156 -1.26436,0.72249 l 1.90783,3.646314 z m -0.0113,-5.791205 q 0,-0.711201 -0.45156,-1.106313 -0.42898,-0.372533 -1.15147,-0.372533 h -2.14489 v 2.946403 h 2.14489 q 0.73378,0 1.15147,-0.361245 0.45156,-0.395112 0.45156,-1.106312 z m 3.16087,3.228625 q 0,0.914401 0.41769,1.411113 0.42897,0.508 1.2192,0.508 0.82409,0 1.45627,-0.632178 l 0.55315,0.485422 q -0.85795,0.857957 -2.032,0.857957 -1.14018,0 -1.76107,-0.688623 -0.66604,-0.72249 -0.66604,-2.15618 0,-1.343379 0.6096,-2.099736 0.6096,-0.745067 1.67075,-0.745067 1.07245,0 1.68205,0.72249 0.59831,0.722489 0.59831,1.964268 v 0.372534 z m 2.93511,-0.609601 q -0.0339,-0.587022 -0.16933,-0.925689 -0.34996,-0.835379 -1.29823,-0.835379 -0.94826,0 -1.29822,0.835379 -0.13547,0.338667 -0.16933,0.925689 z m 5.68959,3.172181 v -0.530578 q -0.59831,0.598312 -1.60302,0.598312 -1.07245,0 -1.56916,-0.508001 -0.41769,-0.417689 -0.41769,-1.12889 0,-0.745067 0.49671,-1.162756 0.508,-0.440268 1.42241,-0.440268 h 1.67075 v -0.530578 q 0,-1.219201 -1.4224,-1.219201 -0.94827,0 -1.39982,0.632178 l -0.55316,-0.508 q 0.36125,-0.462845 0.83538,-0.654756 0.42898,-0.169334 1.12889,-0.169334 2.22391,0 2.22391,1.85138 v 3.770492 z m 0,-2.56258 h -1.55787 q -1.24177,0 -1.24177,0.982134 0,0.948268 1.27564,0.948268 0.85796,0 1.24178,-0.372534 0.28222,-0.270933 0.28222,-0.959556 z m 6.10729,2.56258 v -0.666045 q -0.56445,0.733779 -1.58045,0.733779 -0.86924,0 -1.35467,-0.485423 -0.67733,-0.677334 -0.67733,-2.35938 0,-1.682046 0.67733,-2.35938 0.48543,-0.485423 1.35467,-0.485423 1.016,0 1.56916,0.711201 v -3.127026 h 0.8128 v 8.037697 z m -0.0113,-2.777069 q 0,-0.982134 -0.23707,-1.467557 -0.32738,-0.654756 -1.15147,-0.654756 -0.82409,0 -1.15146,0.654756 -0.24836,0.485423 -0.24836,1.467557 0,0.982134 0.24836,1.467557 0.32737,0.654756 1.15146,0.654756 0.82409,0 1.15147,-0.654756 0.23707,-0.485423 0.23707,-1.467557 z m 2.79963,-4.357516 v -0.914401 h 0.9144 v 0.914401 z m 0.0452,7.134585 v -5.554139 h 0.8128 v 5.554139 z m 6.41208,0 v -3.420536 q 0,-1.478846 -1.36596,-1.478846 -0.64347,0 -1.00471,0.372533 -0.37253,0.395112 -0.37253,1.106313 v 3.420536 h -0.81281 v -5.554139 h 0.81281 v 0.609601 q 0.59831,-0.677334 1.55786,-0.677334 0.90312,0 1.4224,0.519289 0.57574,0.564445 0.57574,1.54658 v 3.556003 z m 6.88621,0.169334 q 0,1.049868 -0.6096,1.704624 -0.63218,0.677334 -1.70462,0.677334 -1.06116,0 -1.88525,-0.745068 l 0.53058,-0.519289 q 0.62089,0.553156 1.33209,0.553156 0.76764,0 1.16275,-0.496711 0.36125,-0.451556 0.36125,-1.207913 v -0.869245 q -0.56445,0.72249 -1.55787,0.72249 -0.84667,0 -1.34338,-0.496712 -0.67733,-0.677334 -0.67733,-2.314225 0,-1.63689 0.67733,-2.314224 0.48542,-0.485423 1.35467,-0.485423 1.00471,0 1.55787,0.72249 v -0.654757 h 0.80151 z m -0.8128,-2.991559 q 0,-0.948267 -0.23707,-1.43369 -0.31609,-0.643467 -1.14018,-0.643467 -0.82409,0 -1.15146,0.643467 -0.23707,0.485423 -0.23707,1.43369 0,0.948268 0.23707,1.422402 0.32737,0.654756 1.15146,0.654756 0.82409,0 1.14018,-0.654756 0.23707,-0.474134 0.23707,-1.422402 z"
       id="text6"
       style="font-size:11.2889px;font-family:DIN;-inkscape-font-specification:DIN;text-align:center;letter-spacing:0px;word-spacing:0px;text-anchor:middle;stroke-linejoin:round;stroke-miterlimit:3.9;stroke-dasharray:1, 1;paint-order:markers stroke fill"
       aria-label="Reading" />
    <path
       d="m 494.02683,95.982513 -1.8288,-3.567292 h -1.9304 v 3.567292 h -0.85796 v -8.037697 h 3.08187 q 1.06116,0 1.71591,0.598312 0.66605,0.609601 0.66605,1.636891 0,0.857956 -0.48543,1.43369 -0.46284,0.553156 -1.26435,0.72249 l 1.90782,3.646314 z m -0.0113,-5.791205 q 0,-0.711201 -0.45156,-1.106313 -0.42897,-0.372533 -1.15146,-0.372533 h -2.14489 v 2.946403 h 2.14489 q 0.73377,0 1.15146,-0.361245 0.45156,-0.395112 0.45156,-1.106312 z m 3.16087,3.228625 q 0,0.914401 0.41769,1.411113 0.42898,0.508 1.2192,0.508 0.82409,0 1.45627,-0.632178 l 0.55316,0.485422 q -0.85796,0.857957 -2.03201,0.857957 -1.14017,0 -1.76106,-0.688623 -0.66605,-0.72249 -0.66605,-2.15618 0,-1.343379 0.6096,-2.099736 0.6096,-0.745067 1.67076,-0.745067 1.07244,0 1.68205,0.72249 0.59831,0.722489 0.59831,1.964268 v 0.372534 z m 2.93512,-0.609601 q -0.0339,-0.587022 -0.16934,-0.925689 -0.34995,-0.835379 -1.29822,-0.835379 -0.94827,0 -1.29822,0.835379 -0.13547,0.338667 -0.16934,0.925689 z m 5.85892,3.172181 v -0.666045 q -0.56444,0.733779 -1.58044,0.733779 -0.86925,0 -1.35467,-0.485423 -0.67734,-0.677334 -0.67734,-2.35938 0,-1.682046 0.67734,-2.35938 0.48542,-0.485423 1.35467,-0.485423 1.016,0 1.56915,0.711201 v -3.127026 h 0.8128 v 8.037697 z m -0.0113,-2.777069 q 0,-0.982134 -0.23706,-1.467557 -0.32738,-0.654756 -1.15147,-0.654756 -0.82409,0 -1.15147,0.654756 -0.24836,0.485423 -0.24836,1.467557 0,0.982134 0.24836,1.467557 0.32738,0.654756 1.15147,0.654756 0.82409,0 1.15147,-0.654756 0.23706,-0.485423 0.23706,-1.467557 z m 6.40079,2.777069 v -3.431825 q 0,-1.467557 -1.35467,-1.467557 -0.64347,0 -1.00471,0.372533 -0.38383,0.383823 -0.38383,1.095024 v 3.431825 h -0.8128 v -8.037697 h 0.8128 v 3.093159 q 0.59832,-0.677334 1.55787,-0.677334 0.93698,0 1.46756,0.553156 0.53058,0.553156 0.53058,1.501424 v 3.567292 z m 2.74318,-7.134585 v -0.914401 h 0.9144 v 0.914401 z m 0.0452,7.134585 v -5.554139 h 0.8128 v 5.554139 z m 4.24461,0 q -0.69991,0 -1.07245,-0.417689 -0.33867,-0.395111 -0.33867,-1.061157 v -6.558851 h 0.81281 v 6.524985 q 0,0.812801 0.74506,0.812801 h 0.44027 v 0.699911 z m 3.35279,0 q -0.69991,0 -1.07245,-0.417689 -0.33866,-0.395111 -0.33866,-1.061157 v -6.558851 h 0.8128 v 6.524985 q 0,0.812801 0.74507,0.812801 h 0.44026 v 0.699911 z"
       id="text7"
       style="font-size:11.2889px;font-family:DIN;-inkscape-font-specification:DIN;text-align:center;letter-spacing:0px;word-spacing:0px;text-anchor:middle;stroke-linejoin:round;stroke-miterlimit:3.9;stroke-dasharray:1, 1;paint-order:markers stroke fill"
       aria-label="Redhill" />
    <path
       d="m 575.01951,124.08485 -0.64347,-1.81752 h -3.51085 l -0.64346,1.81752 h -0.9144 l 2.95769,-8.0377 h 0.72249 l 2.9464,8.0377 z m -2.38196,-6.80721 -1.51271,4.24463 h 3.00285 z m 8.45537,5.1816 q 0,0.79023 -0.62089,1.25307 -0.6096,0.44027 -1.63689,0.44027 -1.44498,0 -2.28036,-0.80151 l 0.54187,-0.54187 q 0.6096,0.64347 1.7272,0.64347 1.47884,0 1.47884,-0.98214 0,-0.73377 -0.92569,-0.8128 l -0.9144,-0.079 q -1.65946,-0.13547 -1.65946,-1.49013 0,-0.74507 0.57573,-1.19663 0.56444,-0.42898 1.46756,-0.42898 1.26435,0 1.99813,0.59832 l -0.53058,0.53057 q -0.57573,-0.44026 -1.47884,-0.44026 -1.24178,0 -1.24178,0.9144 0,0.73378 0.97084,0.8128 l 0.89183,0.079 q 1.63689,0.14676 1.63689,1.50142 z m 5.14772,1.62561 v -3.43183 q 0,-1.46756 -1.35467,-1.46756 -0.64347,0 -1.00471,0.37254 -0.38382,0.38382 -0.38382,1.09502 v 3.43183 h -0.81281 v -8.0377 h 0.81281 v 3.09316 q 0.59831,-0.67734 1.55786,-0.67734 0.93698,0 1.46756,0.55316 0.53058,0.55316 0.53058,1.50142 v 3.5673 z m 3.78176,-4.89939 v 4.89939 h -0.8128 v -4.89939 h -0.7112 v -0.62089 h 0.7112 v -1.04986 q 0,-0.65476 0.34996,-1.04987 0.38382,-0.44027 1.06115,-0.44027 h 0.58703 v 0.69991 h -0.44027 q -0.74507,0 -0.74507,0.8128 v 1.02729 h 1.18534 v 0.62089 z m 6.58141,2.12232 q 0,1.524 -0.67733,2.21262 -0.63218,0.63218 -1.59174,0.63218 -0.95956,0 -1.59173,-0.63218 -0.67734,-0.68862 -0.67734,-2.21262 0,-1.524 0.67734,-2.21263 0.63217,-0.63218 1.59173,-0.63218 0.95956,0 1.59174,0.63218 0.67733,0.68863 0.67733,2.21263 z m -0.8128,0 q 0,-0.59831 -0.0677,-0.93698 -0.1016,-0.508 -0.37253,-0.77894 -0.4064,-0.4064 -1.016,-0.4064 -0.59831,0 -1.00471,0.4064 -0.27094,0.27094 -0.37254,0.77894 -0.079,0.34995 -0.079,0.93698 0,0.58702 0.079,0.93698 0.1016,0.508 0.37254,0.77893 0.4064,0.4064 1.00471,0.4064 0.6096,0 1.016,-0.4064 0.27093,-0.27093 0.37253,-0.77893 0.0677,-0.33867 0.0677,-0.93698 z m 5.65572,-1.71592 q -0.4064,-0.4064 -0.95955,-0.4064 -0.59831,0 -0.97085,0.42898 -0.36124,0.41769 -0.36124,1.06116 v 3.40925 h -0.8128 v -5.55414 h 0.8128 v 0.67733 q 0.48542,-0.74507 1.55787,-0.74507 0.8128,0 1.33209,0.51929 z m 4.58329,4.49299 v -0.66605 q -0.56445,0.73378 -1.58045,0.73378 -0.86924,0 -1.35467,-0.48542 -0.67733,-0.67734 -0.67733,-2.35938 0,-1.68205 0.67733,-2.35938 0.48543,-0.48543 1.35467,-0.48543 1.016,0 1.56916,0.7112 v -3.12702 h 0.8128 v 8.0377 z m -0.0113,-2.77707 q 0,-0.98214 -0.23707,-1.46756 -0.32738,-0.65476 -1.15147,-0.65476 -0.82409,0 -1.15146,0.65476 -0.24836,0.48542 -0.24836,1.46756 0,0.98213 0.24836,1.46755 0.32737,0.65476 1.15146,0.65476 0.82409,0 1.15147,-0.65476 0.23707,-0.48542 0.23707,-1.46755 z m 5.80246,2.77707 v -8.0377 h 0.85796 v 8.0377 z m 6.59271,0 v -3.42054 q 0,-1.47885 -1.36596,-1.47885 -0.64346,0 -1.00471,0.37254 -0.37253,0.39511 -0.37253,1.10631 v 3.42054 h -0.8128 v -5.55414 h 0.8128 v 0.6096 q 0.59831,-0.67734 1.55787,-0.67734 0.90311,0 1.4224,0.51929 0.57573,0.56445 0.57573,1.54658 v 3.55601 z m 4.34621,0 q -0.68862,0 -1.06116,-0.44027 -0.36124,-0.39511 -0.36124,-1.04987 v -3.40925 h -0.69991 v -0.62089 h 0.69991 v -1.73849 h 0.8128 v 1.73849 h 1.18533 v 0.62089 h -1.18533 v 3.38667 q 0,0.8128 0.75636,0.8128 h 0.42897 v 0.69992 z m 2.60771,-2.56258 q 0,0.9144 0.41769,1.41111 0.42897,0.508 1.2192,0.508 0.82409,0 1.45627,-0.63218 l 0.55315,0.48542 q -0.85796,0.85796 -2.032,0.85796 -1.14018,0 -1.76107,-0.68862 -0.66604,-0.72249 -0.66604,-2.15618 0,-1.34338 0.6096,-2.09974 0.6096,-0.74507 1.67075,-0.74507 1.07245,0 1.68205,0.72249 0.59831,0.72249 0.59831,1.96427 v 0.37254 z m 2.93511,-0.6096 q -0.0339,-0.58703 -0.16933,-0.92569 -0.34996,-0.83538 -1.29823,-0.83538 -0.94826,0 -1.29822,0.83538 -0.13547,0.33866 -0.16933,0.92569 z m 5.64444,-1.32081 q -0.4064,-0.4064 -0.95956,-0.4064 -0.59831,0 -0.97084,0.42898 -0.36125,0.41769 -0.36125,1.06116 v 3.40925 h -0.8128 v -5.55414 h 0.8128 v 0.67733 q 0.48542,-0.74507 1.55787,-0.74507 0.8128,0 1.33209,0.51929 z m 5.20417,4.49299 v -3.42054 q 0,-1.47885 -1.36596,-1.47885 -0.64346,0 -1.00471,0.37254 -0.37253,0.39511 -0.37253,1.10631 v 3.42054 h -0.8128 v -5.55414 h 0.8128 v 0.6096 q 0.59831,-0.67734 1.55787,-0.67734 0.90311,0 1.4224,0.51929 0.57573,0.56445 0.57573,1.54658 v 3.55601 z m 5.93795,0 v -0.53058 q -0.59832,0.59831 -1.60303,0.59831 -1.07244,0 -1.56916,-0.508 -0.41768,-0.41769 -0.41768,-1.12889 0,-0.74507 0.49671,-1.16276 0.508,-0.44026 1.4224,-0.44026 h 1.67076 v -0.53058 q 0,-1.2192 -1.42241,-1.2192 -0.94826,0 -1.39982,0.63217 l -0.55316,-0.508 q 0.36125,-0.46284 0.83538,-0.65475 0.42898,-0.16934 1.12889,-0.16934 2.22392,0 2.22392,1.85138 v 3.7705 z m 0,-2.56258 h -1.55787 q -1.24178,0 -1.24178,0.98213 0,0.94827 1.27564,0.94827 0.85796,0 1.24178,-0.37254 0.28223,-0.27093 0.28223,-0.95955 z m 4.34621,2.56258 q -0.68862,0 -1.06116,-0.44027 -0.36124,-0.39511 -0.36124,-1.04987 v -3.40925 h -0.69991 v -0.62089 h 0.69991 v -1.73849 h 0.8128 v 1.73849 h 1.18533 v 0.62089 h -1.18533 v 3.38667 q 0,0.8128 0.75636,0.8128 h 0.42897 v 0.69992 z m 2.14488,-7.13459 v -0.9144 h 0.9144 v 0.9144 z m 0.0451,7.13459 v -5.55414 h 0.81281 v 5.55414 z m 7.10071,-2.77707 q 0,1.524 -0.67733,2.21262 -0.63218,0.63218 -1.59174,0.63218 -0.95956,0 -1.59173,-0.63218 -0.67734,-0.68862 -0.67734,-2.21262 0,-1.524 0.67734,-2.21263 0.63217,-0.63218 1.59173,-0.63218 0.95956,0 1.59174,0.63218 0.67733,0.68863 0.67733,2.21263 z m -0.8128,0 q 0,-0.59831 -0.0677,-0.93698 -0.1016,-0.508 -0.37254,-0.77894 -0.4064,-0.4064 -1.016,-0.4064 -0.59831,0 -1.00471,0.4064 -0.27093,0.27094 -0.37253,0.77894 -0.079,0.34995 -0.079,0.93698 0,0.58702 0.079,0.93698 0.1016,0.508 0.37253,0.77893 0.4064,0.4064 1.00471,0.4064 0.6096,0 1.016,-0.4064 0.27094,-0.27093 0.37254,-0.77893 0.0677,-0.33867 0.0677,-0.93698 z m 6.10728,2.77707 v -3.42054 q 0,-1.47885 -1.36596,-1.47885 -0.64347,0 -1.00471,0.37254 -0.37253,0.39511 -0.37253,1.10631 v 3.42054 h -0.81281 v -5.55414 h 0.81281 v 0.6096 q 0.59831,-0.67734 1.55786,-0.67734 0.90312,0 1.42241,0.51929 0.57573,0.56445 0.57573,1.54658 v 3.55601 z m 5.93794,0 v -0.53058 q -0.59831,0.59831 -1.60302,0.59831 -1.07245,0 -1.56916,-0.508 -0.41769,-0.41769 -0.41769,-1.12889 0,-0.74507 0.49671,-1.16276 0.508,-0.44026 1.42241,-0.44026 h 1.67075 v -0.53058 q 0,-1.2192 -1.4224,-1.2192 -0.94827,0 -1.39982,0.63217 l -0.55316,-0.508 q 0.36125,-0.46284 0.83538,-0.65475 0.42898,-0.16934 1.12889,-0.16934 2.22391,0 2.22391,1.85138 v 3.7705 z m 0,-2.56258 h -1.55787 q -1.24177,0 -1.24177,0.98213 0,0.94827 1.27564,0.94827 0.85796,0 1.24178,-0.37254 0.28222,-0.27093 0.28222,-0.95955 z m 4.17688,2.56258 q -0.69991,0 -1.07244,-0.41769 -0.33867,-0.39511 -0.33867,-1.06116 v -6.55885 h 0.8128 v 6.52498 q 0,0.8128 0.74507,0.8128 h 0.44027 v 0.69992 z"
       id="text8"
       style="font-size:11.2889px;font-family:DIN;-inkscape-font-specification:DIN;text-align:center;letter-spacing:0px;word-spacing:0px;text-anchor:middle;stroke-linejoin:round;stroke-miterlimit:3.9;stroke-dasharray:1, 1;paint-order:markers stroke fill"
       aria-label="Ashford International" />
    <path
       d="m 702.23151,124.08485 v -8.0377 h 0.85795 v 7.27005 h 4.10916 v 0.76765 z m 6.27662,-7.13459 v -0.9144 h 0.91441 v 0.9144 z m 0.0452,7.13459 v -5.55414 h 0.8128 v 5.55414 z m 4.24461,0 q -0.69991,0 -1.07245,-0.41769 -0.33866,-0.39511 -0.33866,-1.06116 v -6.55885 h 0.8128 v 6.52498 q 0,0.8128 0.74506,0.8128 h 0.44027 v 0.69992 z m 3.35279,0 q -0.69991,0 -1.07245,-0.41769 -0.33866,-0.39511 -0.33866,-1.06116 v -6.55885 h 0.8128 v 6.52498 q 0,0.8128 0.74507,0.8128 h 0.44026 v 0.69992 z m 2.19002,-2.56258 q 0,0.9144 0.41769,1.41111 0.42898,0.508 1.2192,0.508 0.82409,0 1.45627,-0.63218 l 0.55315,0.48542 q -0.85795,0.85796 -2.032,0.85796 -1.14018,0 -1.76107,-0.68862 -0.66604,-0.72249 -0.66604,-2.15618 0,-1.34338 0.6096,-2.09974 0.6096,-0.74507 1.67075,-0.74507 1.07245,0 1.68205,0.72249 0.59831,0.72249 0.59831,1.96427 v 0.37254 z m 2.93511,-0.6096 q -0.0339,-0.58703 -0.16933,-0.92569 -0.34996,-0.83538 -1.29823,-0.83538 -0.94826,0 -1.29822,0.83538 -0.13547,0.33866 -0.16933,0.92569 z m 2.38195,0.508 v -0.75636 h 3.09316 v 0.75636 z m 5.11385,2.66418 v -8.0377 h 4.9897 v 0.76764 h -4.13174 v 2.83352 h 3.52214 v 0.76764 h -3.52214 v 2.90125 h 4.13174 v 0.76765 z m 10.13742,0 v -0.62089 q -0.59831,0.68862 -1.56916,0.68862 -0.9144,0 -1.43369,-0.51929 -0.56445,-0.55316 -0.56445,-1.55787 v -3.54471 h 0.81281 v 3.42053 q 0,1.47885 1.35466,1.47885 0.64347,0 1.00472,-0.37253 0.38382,-0.39511 0.38382,-1.10632 v -3.42053 h 0.8128 v 5.55414 z m 5.93794,-4.49299 q -0.4064,-0.4064 -0.95955,-0.4064 -0.59832,0 -0.97085,0.42898 -0.36124,0.41769 -0.36124,1.06116 v 3.40925 h -0.81281 v -5.55414 h 0.81281 v 0.67733 q 0.48542,-0.74507 1.55786,-0.74507 0.8128,0 1.33209,0.51929 z m 5.50897,1.71592 q 0,1.524 -0.67733,2.21262 -0.63218,0.63218 -1.59173,0.63218 -0.95956,0 -1.59174,-0.63218 -0.67733,-0.68862 -0.67733,-2.21262 0,-1.524 0.67733,-2.21263 0.63218,-0.63218 1.59174,-0.63218 0.95955,0 1.59173,0.63218 0.67733,0.68863 0.67733,2.21263 z m -0.8128,0 q 0,-0.59831 -0.0677,-0.93698 -0.1016,-0.508 -0.37253,-0.77894 -0.4064,-0.4064 -1.016,-0.4064 -0.59832,0 -1.00472,0.4064 -0.27093,0.27094 -0.37253,0.77894 -0.079,0.34995 -0.079,0.93698 0,0.58702 0.079,0.93698 0.1016,0.508 0.37253,0.77893 0.4064,0.4064 1.00472,0.4064 0.6096,0 1.016,-0.4064 0.27093,-0.27093 0.37253,-0.77893 0.0677,-0.33867 0.0677,-0.93698 z m 6.96524,0 q 0,1.68204 -0.67733,2.35938 -0.48542,0.48542 -1.35467,0.48542 -1.00471,0 -1.56916,-0.72249 v 3.13831 h -0.8128 v -8.03769 h 0.8128 v 0.65475 q 0.55316,-0.72249 1.56916,-0.72249 0.86925,0 1.35467,0.48543 0.67733,0.67733 0.67733,2.35938 z m -0.8128,0 q 0,-0.98214 -0.23706,-1.46756 -0.32738,-0.65476 -1.15147,-0.65476 -0.82409,0 -1.15147,0.65476 -0.24836,0.48542 -0.24836,1.46756 0,0.98213 0.24836,1.46755 0.32738,0.65476 1.15147,0.65476 0.82409,0 1.15147,-0.65476 0.23706,-0.48542 0.23706,-1.46755 z m 3.05927,0.21449 q 0,0.9144 0.41769,1.41111 0.42898,0.508 1.2192,0.508 0.82409,0 1.45627,-0.63218 l 0.55316,0.48542 q -0.85796,0.85796 -2.03201,0.85796 -1.14018,0 -1.76106,-0.68862 -0.66605,-0.72249 -0.66605,-2.15618 0,-1.34338 0.6096,-2.09974 0.6096,-0.74507 1.67076,-0.74507 1.07244,0 1.68204,0.72249 0.59832,0.72249 0.59832,1.96427 v 0.37254 z m 2.93512,-0.6096 q -0.0339,-0.58703 -0.16934,-0.92569 -0.34995,-0.83538 -1.29822,-0.83538 -0.94827,0 -1.29823,0.83538 -0.13546,0.33866 -0.16933,0.92569 z"
       id="text9"
       style="font-size:11.2889px;font-family:DIN;-inkscape-font-specification:DIN;text-align:center;letter-spacing:0px;word-spacing:0px;text-anchor:middle;stroke-linejoin:round;stroke-miterlimit:3.9;stroke-dasharray:1, 1;paint-order:markers stroke fill"
       aria-label="Lille-Europe" />
    <g
       id="g16"
       transform="translate(11.112501)">
      <path
         d="m 807.17335,75.967821 q 0,1.072445 -0.66604,1.659468 -0.63218,0.564445 -1.72721,0.564445 h -3.12702 v -8.037697 h 3.02542 q 1.06116,0 1.71592,0.564445 0.65475,0.587023 0.65475,1.580446 0,0.62089 -0.33866,1.106313 -0.32738,0.462844 -0.84667,0.654756 1.30951,0.485422 1.30951,1.907824 z m -0.98213,-3.657604 q 0,-0.688623 -0.45156,-1.049868 -0.41769,-0.338667 -1.12889,-0.338667 h -2.09973 v 2.788359 h 2.09973 q 0.69991,0 1.12889,-0.338667 0.45156,-0.372534 0.45156,-1.061157 z m 0.12417,3.635026 q 0,-0.677334 -0.42897,-1.072445 -0.44027,-0.395112 -1.18534,-0.395112 h -2.19004 v 2.946403 h 2.19004 q 0.74507,0 1.18534,-0.4064 0.42897,-0.395112 0.42897,-1.072446 z m 5.83636,-2.246491 q -0.4064,-0.4064 -0.95956,-0.4064 -0.59831,0 -0.97084,0.428978 -0.36125,0.417689 -0.36125,1.061156 v 3.409248 h -0.8128 v -5.554139 h 0.8128 v 0.677334 q 0.48542,-0.745067 1.55787,-0.745067 0.8128,0 1.33209,0.519289 z m 5.15902,4.492982 v -0.620889 q -0.59831,0.688623 -1.56916,0.688623 -0.9144,0 -1.43369,-0.51929 -0.56444,-0.553156 -0.56444,-1.557868 v -3.544715 h 0.8128 v 3.420537 q 0,1.478846 1.35467,1.478846 0.64346,0 1.00471,-0.372534 0.38382,-0.395111 0.38382,-1.106312 v -3.420537 h 0.8128 v 5.554139 z m 5.85892,0 -1.33209,-2.15618 -1.35467,2.15618 h -0.98213 l 1.88525,-2.833514 -1.80623,-2.720625 h 0.98214 l 1.27564,2.05458 1.25307,-2.05458 h 0.98213 l -1.80622,2.720625 1.88525,2.833514 z m 2.65287,-2.56258 q 0,0.914401 0.41769,1.411112 0.42898,0.508001 1.2192,0.508001 0.82409,0 1.45627,-0.632178 l 0.55316,0.485422 q -0.85796,0.857957 -2.032,0.857957 -1.14018,0 -1.76107,-0.688623 -0.66605,-0.72249 -0.66605,-2.15618 0,-1.343379 0.6096,-2.099736 0.6096,-0.745067 1.67076,-0.745067 1.07244,0 1.68205,0.72249 0.59831,0.722489 0.59831,1.964268 v 0.372534 z m 2.93512,-0.609601 q -0.0339,-0.587023 -0.16934,-0.92569 -0.34995,-0.835378 -1.29822,-0.835378 -0.94827,0 -1.29822,0.835378 -0.13547,0.338667 -0.16934,0.92569 z m 3.92852,3.172181 q -0.69991,0 -1.07245,-0.417689 -0.33866,-0.395112 -0.33866,-1.061157 v -6.558851 h 0.8128 v 6.524985 q 0,0.8128 0.74507,0.8128 h 0.44026 v 0.699912 z m 3.35279,0 q -0.69991,0 -1.07244,-0.417689 -0.33867,-0.395112 -0.33867,-1.061157 v -6.558851 h 0.8128 v 6.524985 q 0,0.8128 0.74507,0.8128 h 0.44026 v 0.699912 z m 2.19002,-2.56258 q 0,0.914401 0.41769,1.411112 0.42898,0.508001 1.2192,0.508001 0.82409,0 1.45627,-0.632178 l 0.55316,0.485422 q -0.85796,0.857957 -2.03201,0.857957 -1.14018,0 -1.76106,-0.688623 -0.66605,-0.72249 -0.66605,-2.15618 0,-1.343379 0.6096,-2.099736 0.6096,-0.745067 1.67076,-0.745067 1.07244,0 1.68204,0.72249 0.59832,0.722489 0.59832,1.964268 v 0.372534 z m 2.93511,-0.609601 q -0.0339,-0.587023 -0.16933,-0.92569 -0.34995,-0.835378 -1.29822,-0.835378 -0.94827,0 -1.29823,0.835378 -0.13546,0.338667 -0.16933,0.92569 z m 6.54755,1.54658 q 0,0.790223 -0.62089,1.253068 -0.6096,0.440267 -1.63689,0.440267 -1.44498,0 -2.28036,-0.801512 l 0.54187,-0.541867 q 0.6096,0.643467 1.7272,0.643467 1.47885,0 1.47885,-0.982134 0,-0.733779 -0.92569,-0.812801 l -0.9144,-0.07902 q -1.65947,-0.135466 -1.65947,-1.490134 0,-0.745068 0.57573,-1.196624 0.56445,-0.428978 1.46756,-0.428978 1.26436,0 1.99813,0.598312 l -0.53057,0.530578 q -0.57574,-0.440267 -1.47885,-0.440267 -1.24178,0 -1.24178,0.914401 0,0.733778 0.97085,0.812801 l 0.89182,0.07902 q 1.63689,0.146756 1.63689,1.501424 z m 1.43367,-1.038579 v -0.756356 h 3.09316 v 0.756356 z m 11.14213,2.66418 v -6.107295 l -2.20133,4.842938 h -0.73378 l -2.2352,-4.842938 v 6.107295 h -0.85796 v -8.037697 h 0.85796 l 2.61902,5.700895 2.55129,-5.700895 h 0.85796 v 8.037697 z m 2.99156,-7.134585 v -0.914401 h 0.9144 v 0.914401 z m 0.0452,7.134585 v -5.554139 h 0.8128 v 5.554139 z m 6.175,0 v -0.666045 q -0.56444,0.733779 -1.58044,0.733779 -0.86925,0 -1.35467,-0.485423 -0.67733,-0.677334 -0.67733,-2.35938 0,-1.682046 0.67733,-2.35938 0.48542,-0.485423 1.35467,-0.485423 1.016,0 1.56916,0.711201 v -3.127026 h 0.8128 v 8.037697 z m -0.0113,-2.777069 q 0,-0.982135 -0.23707,-1.467557 -0.32738,-0.654756 -1.15147,-0.654756 -0.82409,0 -1.15147,0.654756 -0.24835,0.485422 -0.24835,1.467557 0,0.982134 0.24835,1.467557 0.32738,0.654756 1.15147,0.654756 0.82409,0 1.15147,-0.654756 0.23707,-0.485423 0.23707,-1.467557 z m 2.79963,-4.357516 v -0.914401 h 0.9144 v 0.914401 z m 0.0451,7.134585 v -5.554139 h 0.8128 v 5.554139 z"
         id="text10"
         style="font-size:11.2889px;font-family:DIN;-inkscape-font-specification:DIN;text-align:center;letter-spacing:0px;word-spacing:0px;text-anchor:middle;stroke-linejoin:round;stroke-miterlimit:3.9;stroke-dasharray:1, 1;paint-order:markers stroke fill"
         aria-label="Bruxelles-Midi" />
      <path
         d="m 811.34459,89.525263 q 0,1.072445 -0.66604,1.659468 -0.63218,0.564445 -1.7272,0.564445 h -3.12703 v -8.037697 h 3.02543 q 1.06115,0 1.71591,0.564445 0.65476,0.587023 0.65476,1.580446 0,0.62089 -0.33867,1.106312 -0.32738,0.462845 -0.84667,0.654756 1.30951,0.485423 1.30951,1.907825 z m -0.98213,-3.657604 q 0,-0.688623 -0.45156,-1.049868 -0.41769,-0.338667 -1.12889,-0.338667 h -2.09973 v 2.788359 h 2.09973 q 0.69991,0 1.12889,-0.338667 0.45156,-0.372534 0.45156,-1.061157 z m 0.12418,3.635026 q 0,-0.677334 -0.42898,-1.072446 -0.44027,-0.395111 -1.18534,-0.395111 h -2.19004 v 2.946403 h 2.19004 q 0.74507,0 1.18534,-0.406401 0.42898,-0.395111 0.42898,-1.072445 z m 5.83635,-2.246491 q -0.4064,-0.406401 -0.95956,-0.406401 -0.59831,0 -0.97084,0.428978 -0.36125,0.41769 -0.36125,1.061157 v 3.409248 h -0.8128 v -5.554139 h 0.8128 v 0.677334 q 0.48543,-0.745067 1.55787,-0.745067 0.8128,0 1.33209,0.519289 z m 5.15902,4.492982 v -0.620889 q -0.59831,0.688622 -1.56916,0.688622 -0.9144,0 -1.43369,-0.519289 -0.56444,-0.553156 -0.56444,-1.557868 v -3.544715 h 0.8128 v 3.420537 q 0,1.478846 1.35467,1.478846 0.64347,0 1.00471,-0.372534 0.38382,-0.395111 0.38382,-1.106312 v -3.420537 h 0.8128 v 5.554139 z m 6.84106,-1.625602 q 0,0.790223 -0.62089,1.253068 -0.6096,0.440267 -1.63689,0.440267 -1.44498,0 -2.28036,-0.801511 l 0.54187,-0.541868 q 0.6096,0.643468 1.7272,0.643468 1.47885,0 1.47885,-0.982135 0,-0.733778 -0.92569,-0.812801 l -0.91441,-0.07902 q -1.65946,-0.135467 -1.65946,-1.490135 0,-0.745067 0.57573,-1.196623 0.56445,-0.428978 1.46756,-0.428978 1.26435,0 1.99813,0.598311 l -0.53058,0.530579 q -0.57573,-0.440267 -1.47884,-0.440267 -1.24178,0 -1.24178,0.9144 0,0.733779 0.97084,0.812801 l 0.89183,0.07902 q 1.63689,0.146755 1.63689,1.501424 z m 5.41864,0 q 0,0.790223 -0.62089,1.253068 -0.6096,0.440267 -1.63689,0.440267 -1.44498,0 -2.28036,-0.801511 l 0.54187,-0.541868 q 0.6096,0.643468 1.7272,0.643468 1.47885,0 1.47885,-0.982135 0,-0.733778 -0.92569,-0.812801 l -0.9144,-0.07902 q -1.65947,-0.135467 -1.65947,-1.490135 0,-0.745067 0.57573,-1.196623 0.56445,-0.428978 1.46756,-0.428978 1.26436,0 1.99814,0.598311 l -0.53058,0.530579 q -0.57574,-0.440267 -1.47885,-0.440267 -1.24178,0 -1.24178,0.9144 0,0.733779 0.97085,0.812801 l 0.89182,0.07902 q 1.63689,0.146755 1.63689,1.501424 z m 2.09972,-0.936978 q 0,0.914401 0.41769,1.411112 0.42898,0.508001 1.2192,0.508001 0.82409,0 1.45627,-0.632179 l 0.55316,0.485423 q -0.85796,0.857956 -2.03201,0.857956 -1.14018,0 -1.76106,-0.688622 -0.66605,-0.72249 -0.66605,-2.15618 0,-1.34338 0.6096,-2.099736 0.6096,-0.745067 1.67076,-0.745067 1.07244,0 1.68204,0.722489 0.59832,0.72249 0.59832,1.964269 v 0.372534 z m 2.93511,-0.609601 q -0.0339,-0.587023 -0.16933,-0.92569 -0.34995,-0.835378 -1.29822,-0.835378 -0.94827,0 -1.29823,0.835378 -0.13546,0.338667 -0.16933,0.92569 z m 3.92853,3.172181 q -0.69991,0 -1.07245,-0.417689 -0.33866,-0.395112 -0.33866,-1.061157 v -6.558851 h 0.8128 v 6.524984 q 0,0.812801 0.74507,0.812801 h 0.44026 v 0.699912 z m 1.80621,-2.66418 v -0.756357 h 3.09316 v 0.756357 z m 4.59457,2.66418 v -0.812801 l 4.01885,-6.457251 h -3.86081 v -0.767645 h 4.83165 v 0.72249 l -4.05271,6.547562 h 4.05271 v 0.767645 z m 10.16001,0 v -0.620889 q -0.59832,0.688622 -1.56916,0.688622 -0.9144,0 -1.43369,-0.519289 -0.56445,-0.553156 -0.56445,-1.557868 v -3.544715 h 0.8128 v 3.420537 q 0,1.478846 1.35467,1.478846 0.64347,0 1.00471,-0.372534 0.38383,-0.395111 0.38383,-1.106312 v -3.420537 h 0.8128 v 5.554139 z m 2.78833,-7.134585 V 83.70019 h 0.9144 v 0.914401 z m 0.0452,7.134585 v -5.554139 h 0.8128 v 5.554139 z m 6.17501,0 v -0.666045 q -0.56444,0.733778 -1.58045,0.733778 -0.86924,0 -1.35466,-0.485422 -0.67734,-0.677334 -0.67734,-2.35938 0,-1.682047 0.67734,-2.359381 0.48542,-0.485422 1.35466,-0.485422 1.01601,0 1.56916,0.7112 v -3.127025 h 0.8128 v 8.037697 z m -0.0113,-2.777069 q 0,-0.982135 -0.23706,-1.467558 -0.32738,-0.654756 -1.15147,-0.654756 -0.82409,0 -1.15147,0.654756 -0.24836,0.485423 -0.24836,1.467558 0,0.982134 0.24836,1.467557 0.32738,0.654756 1.15147,0.654756 0.82409,0 1.15147,-0.654756 0.23706,-0.485423 0.23706,-1.467557 z"
         id="text11"
         style="font-size:11.2889px;font-family:DIN;-inkscape-font-specification:DIN;text-align:center;letter-spacing:0px;word-spacing:0px;text-anchor:middle;stroke-linejoin:round;stroke-miterlimit:3.9;stroke-dasharray:1, 1;paint-order:markers stroke fill"
         aria-label="Brussel-Zuid" />
    </g>
    <path
       d="m 828.24262,185.43939 q 0,1.07244 -0.68862,1.7272 -0.68863,0.64347 -1.79494,0.64347 h -2.1336 v 3.30765 h -0.85796 v -8.0377 h 2.99156 q 1.10631,0 1.79494,0.63218 0.68862,0.65475 0.68862,1.7272 z m -0.85796,0 q 0,-0.77893 -0.47413,-1.19662 -0.45156,-0.39512 -1.23049,-0.39512 h -2.05458 v 3.19476 h 2.05458 q 0.77893,0 1.23049,-0.4064 0.47413,-0.41769 0.47413,-1.19662 z m 5.3848,5.67832 v -0.53058 q -0.59831,0.59831 -1.60303,0.59831 -1.07244,0 -1.56915,-0.508 -0.41769,-0.41769 -0.41769,-1.12889 0,-0.74507 0.49671,-1.16276 0.508,-0.44026 1.4224,-0.44026 h 1.67076 v -0.53058 q 0,-1.2192 -1.4224,-1.2192 -0.94827,0 -1.39983,0.63217 l -0.55315,-0.508 q 0.36124,-0.46284 0.83537,-0.65475 0.42898,-0.16934 1.12889,-0.16934 2.22392,0 2.22392,1.85138 v 3.7705 z m 0,-2.56258 h -1.55787 q -1.24178,0 -1.24178,0.98213 0,0.94827 1.27565,0.94827 0.85795,0 1.24177,-0.37254 0.28223,-0.27093 0.28223,-0.95955 z m 5.89279,-1.93041 q -0.4064,-0.4064 -0.95955,-0.4064 -0.59832,0 -0.97085,0.42898 -0.36124,0.41769 -0.36124,1.06116 v 3.40925 h -0.81281 v -5.55414 h 0.81281 v 0.67733 q 0.48542,-0.74507 1.55786,-0.74507 0.8128,0 1.33209,0.51929 z m 1.60302,-2.6416 v -0.9144 h 0.9144 v 0.9144 z m 0.0452,7.13459 v -5.55414 h 0.8128 v 5.55414 z m 6.86363,-1.62561 q 0,0.79023 -0.62089,1.25307 -0.6096,0.44027 -1.63689,0.44027 -1.44498,0 -2.28036,-0.80151 l 0.54187,-0.54187 q 0.6096,0.64347 1.7272,0.64347 1.47885,0 1.47885,-0.98214 0,-0.73377 -0.92569,-0.8128 l -0.91441,-0.079 q -1.65946,-0.13547 -1.65946,-1.49013 0,-0.74507 0.57573,-1.19663 0.56445,-0.42898 1.46756,-0.42898 1.26435,0 1.99813,0.59832 l -0.53058,0.53057 q -0.57573,-0.44026 -1.47884,-0.44026 -1.24178,0 -1.24178,0.9144 0,0.73378 0.97084,0.8128 l 0.89183,0.079 q 1.63689,0.14676 1.63689,1.50142 z m 9.67455,1.62561 -4.2672,-6.44597 v 6.44597 h -0.85796 v -8.0377 h 0.8128 l 4.26721,6.42338 v -6.42338 h 0.85795 v 8.0377 z m 7.23617,-2.77707 q 0,1.524 -0.67733,2.21262 -0.63218,0.63218 -1.59174,0.63218 -0.95956,0 -1.59173,-0.63218 -0.67734,-0.68862 -0.67734,-2.21262 0,-1.524 0.67734,-2.21263 0.63217,-0.63218 1.59173,-0.63218 0.95956,0 1.59174,0.63218 0.67733,0.68863 0.67733,2.21263 z m -0.8128,0 q 0,-0.59831 -0.0677,-0.93698 -0.1016,-0.508 -0.37254,-0.77894 -0.4064,-0.4064 -1.016,-0.4064 -0.59831,0 -1.00471,0.4064 -0.27093,0.27094 -0.37253,0.77894 -0.079,0.34995 -0.079,0.93698 0,0.58702 0.079,0.93698 0.1016,0.508 0.37253,0.77893 0.4064,0.4064 1.00471,0.4064 0.6096,0 1.016,-0.4064 0.27094,-0.27093 0.37254,-0.77893 0.0677,-0.33867 0.0677,-0.93698 z m 5.65573,-1.71592 q -0.4064,-0.4064 -0.95956,-0.4064 -0.59831,0 -0.97085,0.42898 -0.36124,0.41769 -0.36124,1.06116 v 3.40925 h -0.8128 v -5.55414 h 0.8128 v 0.67733 q 0.48542,-0.74507 1.55787,-0.74507 0.8128,0 1.33209,0.51929 z m 4.58328,4.49299 v -0.66605 q -0.56445,0.73378 -1.58045,0.73378 -0.86924,0 -1.35467,-0.48542 -0.67733,-0.67734 -0.67733,-2.35938 0,-1.68205 0.67733,-2.35938 0.48543,-0.48543 1.35467,-0.48543 1.016,0 1.56916,0.7112 v -3.12702 h 0.8128 v 8.0377 z m -0.0113,-2.77707 q 0,-0.98214 -0.23707,-1.46756 -0.32738,-0.65476 -1.15147,-0.65476 -0.82409,0 -1.15146,0.65476 -0.24836,0.48542 -0.24836,1.46756 0,0.98213 0.24836,1.46755 0.32737,0.65476 1.15146,0.65476 0.82409,0 1.15147,-0.65476 0.23707,-0.48542 0.23707,-1.46755 z"
       id="text12"
       style="font-size:11.2889px;font-family:DIN;-inkscape-font-specification:DIN;text-align:center;letter-spacing:0px;word-spacing:0px;text-anchor:middle;stroke-linejoin:round;stroke-miterlimit:3.9;stroke-dasharray:1, 1;paint-order:markers stroke fill"
       aria-label="Paris Nord" />
    <path
       d="m 415.7642,188.89379 q 0,1.07245 -0.66605,1.65947 -0.63218,0.56445 -1.7272,0.56445 h -3.12702 v -8.0377 h 3.02542 q 1.06116,0 1.71591,0.56444 0.65476,0.58703 0.65476,1.58045 0,0.62089 -0.33867,1.10631 -0.32738,0.46285 -0.84666,0.65476 1.30951,0.48542 1.30951,1.90782 z m -0.98214,-3.6576 q 0,-0.68862 -0.45155,-1.04987 -0.41769,-0.33867 -1.12889,-0.33867 h -2.09974 v 2.78836 h 2.09974 q 0.69991,0 1.12889,-0.33866 0.45155,-0.37254 0.45155,-1.06116 z m 0.12418,3.63503 q 0,-0.67734 -0.42898,-1.07245 -0.44026,-0.39511 -1.18533,-0.39511 h -2.19005 v 2.9464 h 2.19005 q 0.74507,0 1.18533,-0.4064 0.42898,-0.39511 0.42898,-1.07244 z m 5.83635,-2.2465 q -0.4064,-0.4064 -0.95955,-0.4064 -0.59831,0 -0.97085,0.42898 -0.36124,0.41769 -0.36124,1.06116 v 3.40925 h -0.8128 v -5.55414 h 0.8128 v 0.67733 q 0.48542,-0.74507 1.55787,-0.74507 0.8128,0 1.33209,0.51929 z m 1.60302,-2.6416 v -0.9144 h 0.9144 v 0.9144 z m 0.0452,7.13459 v -5.55414 h 0.8128 v 5.55414 z m 6.95394,0.16933 q 0,1.04987 -0.6096,1.70462 -0.63218,0.67734 -1.70462,0.67734 -1.06116,0 -1.88525,-0.74507 l 0.53058,-0.51929 q 0.62089,0.55316 1.33209,0.55316 0.76765,0 1.16276,-0.49671 0.36124,-0.45156 0.36124,-1.20792 v -0.86924 q -0.56444,0.72249 -1.55787,0.72249 -0.84666,0 -1.34338,-0.49671 -0.67733,-0.67734 -0.67733,-2.31423 0,-1.63689 0.67733,-2.31422 0.48543,-0.48543 1.35467,-0.48543 1.00471,0 1.55787,0.72249 v -0.65475 h 0.80151 z m -0.8128,-2.99156 q 0,-0.94827 -0.23707,-1.43369 -0.31608,-0.64347 -1.14017,-0.64347 -0.82409,0 -1.15147,0.64347 -0.23707,0.48542 -0.23707,1.43369 0,0.94827 0.23707,1.4224 0.32738,0.65476 1.15147,0.65476 0.82409,0 1.14017,-0.65476 0.23707,-0.47413 0.23707,-1.4224 z m 6.4008,2.82223 v -3.43183 q 0,-1.46756 -1.35467,-1.46756 -0.64346,0 -1.00471,0.37254 -0.38382,0.38382 -0.38382,1.09502 v 3.43183 h -0.8128 v -8.0377 h 0.8128 v 3.09316 q 0.59831,-0.67734 1.55787,-0.67734 0.93697,0 1.46755,0.55316 0.53058,0.55316 0.53058,1.50142 v 3.5673 z m 4.34621,0 q -0.68862,0 -1.06116,-0.44027 -0.36124,-0.39511 -0.36124,-1.04987 v -3.40925 h -0.69991 v -0.62089 h 0.69991 v -1.73849 h 0.8128 v 1.73849 h 1.18533 v 0.62089 h -1.18533 v 3.38667 q 0,0.8128 0.75635,0.8128 h 0.42898 v 0.69992 z m 6.34433,-2.77707 q 0,1.524 -0.67733,2.21262 -0.63218,0.63218 -1.59174,0.63218 -0.95955,0 -1.59173,-0.63218 -0.67734,-0.68862 -0.67734,-2.21262 0,-1.524 0.67734,-2.21263 0.63218,-0.63218 1.59173,-0.63218 0.95956,0 1.59174,0.63218 0.67733,0.68863 0.67733,2.21263 z m -0.8128,0 q 0,-0.59831 -0.0677,-0.93698 -0.1016,-0.508 -0.37254,-0.77894 -0.4064,-0.4064 -1.016,-0.4064 -0.59831,0 -1.00471,0.4064 -0.27093,0.27094 -0.37253,0.77894 -0.079,0.34995 -0.079,0.93698 0,0.58702 0.079,0.93698 0.1016,0.508 0.37253,0.77893 0.4064,0.4064 1.00471,0.4064 0.6096,0 1.016,-0.4064 0.27094,-0.27093 0.37254,-0.77893 0.0677,-0.33867 0.0677,-0.93698 z m 6.10728,2.77707 v -3.42054 q 0,-1.47885 -1.36596,-1.47885 -0.64346,0 -1.00471,0.37254 -0.37253,0.39511 -0.37253,1.10631 v 3.42054 h -0.8128 v -5.55414 h 0.8128 v 0.6096 q 0.59831,-0.67734 1.55787,-0.67734 0.90311,0 1.4224,0.51929 0.57573,0.56445 0.57573,1.54658 v 3.55601 z"
       id="text13"
       style="font-size:11.2889px;font-family:DIN;-inkscape-font-specification:DIN;text-align:center;letter-spacing:0px;word-spacing:0px;text-anchor:middle;stroke-linejoin:round;stroke-miterlimit:3.9;stroke-dasharray:1, 1;paint-order:markers stroke fill"
       aria-label="Brighton" />
    <path
       d="m 194.00342,188.90508 q 0,1.04987 -0.75636,1.67076 -0.75635,0.6096 -2.02071,0.6096 -1.69334,0 -2.75449,-1.06116 l 0.58702,-0.58702 q 0.88053,0.88053 2.19005,0.88053 0.88053,0 1.38853,-0.39511 0.508,-0.39511 0.508,-1.09502 0,-0.66605 -0.38382,-1.00471 -0.31609,-0.27094 -1.04987,-0.38383 l -0.93698,-0.14675 q -0.95955,-0.15805 -1.47884,-0.6096 -0.6096,-0.54187 -0.6096,-1.50143 0,-1.02729 0.68862,-1.64817 0.69991,-0.62089 1.88525,-0.62089 1.41111,0 2.39324,0.88053 l -0.55315,0.55316 q -0.75636,-0.68863 -1.87396,-0.68863 -0.79022,0 -1.25307,0.4064 -0.44027,0.4064 -0.44027,1.08374 0,0.6096 0.36125,0.92569 0.37253,0.32738 1.08373,0.44027 l 0.88054,0.13546 q 0.98213,0.14676 1.46756,0.56445 0.67733,0.57573 0.67733,1.59173 z m 5.8928,-0.56444 q 0,1.524 -0.67734,2.21262 -0.63217,0.63218 -1.59173,0.63218 -0.95956,0 -1.59174,-0.63218 -0.67733,-0.68862 -0.67733,-2.21262 0,-1.524 0.67733,-2.21263 0.63218,-0.63218 1.59174,-0.63218 0.95956,0 1.59173,0.63218 0.67734,0.68863 0.67734,2.21263 z m -0.8128,0 q 0,-0.59831 -0.0677,-0.93698 -0.1016,-0.508 -0.37253,-0.77894 -0.4064,-0.4064 -1.016,-0.4064 -0.59831,0 -1.00471,0.4064 -0.27094,0.27094 -0.37254,0.77894 -0.079,0.34995 -0.079,0.93698 0,0.58702 0.079,0.93698 0.1016,0.508 0.37254,0.77893 0.4064,0.4064 1.00471,0.4064 0.6096,0 1.016,-0.4064 0.27093,-0.27093 0.37253,-0.77893 0.0677,-0.33867 0.0677,-0.93698 z m 6.06212,2.77707 v -0.62089 q -0.59831,0.68862 -1.56915,0.68862 -0.91441,0 -1.43369,-0.51929 -0.56445,-0.55316 -0.56445,-1.55787 v -3.54471 h 0.8128 v 3.42053 q 0,1.47885 1.35467,1.47885 0.64347,0 1.00471,-0.37253 0.38382,-0.39512 0.38382,-1.10632 v -3.42053 h 0.8128 v 5.55414 z m 4.39137,0 q -0.68863,0 -1.06116,-0.44027 -0.36125,-0.39511 -0.36125,-1.04987 v -3.40925 h -0.69991 v -0.62089 h 0.69991 v -1.73849 h 0.81281 v 1.73849 h 1.18533 v 0.62089 h -1.18533 v 3.38667 q 0,0.8128 0.75635,0.8128 h 0.42898 v 0.69992 z m 5.74603,0 v -3.43183 q 0,-1.46756 -1.35466,-1.46756 -0.64347,0 -1.00472,0.37254 -0.38382,0.38382 -0.38382,1.09502 v 3.43183 h -0.8128 v -8.0377 h 0.8128 v 3.09316 q 0.59831,-0.67734 1.55787,-0.67734 0.93698,0 1.46756,0.55316 0.53057,0.55316 0.53057,1.50142 v 3.5673 z m 5.93795,0 v -0.53058 q -0.59832,0.59831 -1.60303,0.59831 -1.07244,0 -1.56915,-0.508 -0.41769,-0.41769 -0.41769,-1.12889 0,-0.74507 0.49671,-1.16276 0.508,-0.44026 1.4224,-0.44026 h 1.67076 v -0.53058 q 0,-1.2192 -1.42241,-1.2192 -0.94826,0 -1.39982,0.63217 l -0.55315,-0.508 q 0.36124,-0.46284 0.83537,-0.65475 0.42898,-0.16934 1.12889,-0.16934 2.22392,0 2.22392,1.85138 v 3.7705 z m 0,-2.56258 h -1.55787 q -1.24178,0 -1.24178,0.98213 0,0.94827 1.27564,0.94827 0.85796,0 1.24178,-0.37254 0.28223,-0.27093 0.28223,-0.95955 z m 9.92293,2.56258 v -3.42054 q 0,-1.47885 -1.36596,-1.47885 -0.62089,0 -0.99342,0.36125 -0.39511,0.38382 -0.39511,1.02729 v 3.51085 h -0.8128 v -3.42054 q 0,-1.47885 -1.36596,-1.47885 -0.64347,0 -1.00471,0.37254 -0.38382,0.39511 -0.38382,1.10631 v 3.42054 h -0.8128 v -5.55414 h 0.8128 v 0.6096 q 0.59831,-0.67734 1.56915,-0.67734 1.18534,0 1.70463,0.92569 0.65475,-0.92569 1.8288,-0.92569 0.89182,0 1.43369,0.51929 0.59831,0.57574 0.59831,1.54658 v 3.55601 z m 7.20231,-2.77707 q 0,1.68204 -0.67733,2.35938 -0.48542,0.48542 -1.35467,0.48542 -1.00471,0 -1.56915,-0.72249 v 3.13831 h -0.81281 v -8.03769 h 0.81281 v 0.65475 q 0.55315,-0.72249 1.56915,-0.72249 0.86925,0 1.35467,0.48543 0.67733,0.67733 0.67733,2.35938 z m -0.8128,0 q 0,-0.98214 -0.23706,-1.46756 -0.32738,-0.65476 -1.15147,-0.65476 -0.82409,0 -1.15147,0.65476 -0.24835,0.48542 -0.24835,1.46756 0,0.98213 0.24835,1.46755 0.32738,0.65476 1.15147,0.65476 0.82409,0 1.15147,-0.65476 0.23706,-0.48542 0.23706,-1.46755 z m 4.10914,2.77707 q -0.68862,0 -1.06115,-0.44027 -0.36125,-0.39511 -0.36125,-1.04987 v -3.40925 h -0.69991 v -0.62089 h 0.69991 v -1.73849 h 0.8128 v 1.73849 h 1.18534 v 0.62089 h -1.18534 v 3.38667 q 0,0.8128 0.75636,0.8128 h 0.42898 v 0.69992 z m 6.34434,-2.77707 q 0,1.524 -0.67734,2.21262 -0.63218,0.63218 -1.59173,0.63218 -0.95956,0 -1.59174,-0.63218 -0.67733,-0.68862 -0.67733,-2.21262 0,-1.524 0.67733,-2.21263 0.63218,-0.63218 1.59174,-0.63218 0.95955,0 1.59173,0.63218 0.67734,0.68863 0.67734,2.21263 z m -0.8128,0 q 0,-0.59831 -0.0677,-0.93698 -0.1016,-0.508 -0.37253,-0.77894 -0.4064,-0.4064 -1.016,-0.4064 -0.59831,0 -1.00471,0.4064 -0.27094,0.27094 -0.37254,0.77894 -0.079,0.34995 -0.079,0.93698 0,0.58702 0.079,0.93698 0.1016,0.508 0.37254,0.77893 0.4064,0.4064 1.00471,0.4064 0.6096,0 1.016,-0.4064 0.27093,-0.27093 0.37253,-0.77893 0.0677,-0.33867 0.0677,-0.93698 z m 6.10728,2.77707 v -3.42054 q 0,-1.47885 -1.36596,-1.47885 -0.64347,0 -1.00471,0.37254 -0.37253,0.39511 -0.37253,1.10631 v 3.42054 h -0.81281 v -5.55414 h 0.81281 v 0.6096 q 0.59831,-0.67734 1.55786,-0.67734 0.90312,0 1.4224,0.51929 0.57574,0.56445 0.57574,1.54658 v 3.55601 z m 11.04051,-2.32552 q -0.19191,1.1176 -0.94827,1.76107 -0.75636,0.63218 -1.84009,0.63218 -1.2192,0 -2.05458,-0.83538 -0.51929,-0.51929 -0.66605,-1.27564 -0.0903,-0.49672 -0.0903,-1.97556 0,-1.47885 0.0903,-1.98685 0.14676,-0.74507 0.66605,-1.26436 0.83538,-0.83537 2.05458,-0.83537 1.09502,0 1.84009,0.63217 0.74507,0.63218 0.94827,1.76107 h -0.88054 q -0.15804,-0.74506 -0.65475,-1.18533 -0.508,-0.44027 -1.25307,-0.44027 -0.84667,0 -1.38854,0.56445 -0.36124,0.37253 -0.47413,0.93697 -0.0903,0.49672 -0.0903,1.81752 0,1.3208 0.0903,1.81751 0.11289,0.56445 0.47413,0.93698 0.54187,0.56444 1.38854,0.56444 0.74507,0 1.26435,-0.44026 0.50801,-0.44027 0.66605,-1.18534 z m 2.25777,-0.23706 q 0,0.9144 0.41769,1.41111 0.42898,0.508 1.2192,0.508 0.82409,0 1.45627,-0.63218 l 0.55316,0.48542 q -0.85796,0.85796 -2.03201,0.85796 -1.14017,0 -1.76106,-0.68862 -0.66605,-0.72249 -0.66605,-2.15618 0,-1.34338 0.6096,-2.09974 0.6096,-0.74507 1.67076,-0.74507 1.07244,0 1.68204,0.72249 0.59832,0.72249 0.59832,1.96427 v 0.37254 z m 2.93512,-0.6096 q -0.0339,-0.58703 -0.16934,-0.92569 -0.34995,-0.83538 -1.29822,-0.83538 -0.94827,0 -1.29822,0.83538 -0.13547,0.33866 -0.16934,0.92569 z m 6.09599,3.17218 v -3.42054 q 0,-1.47885 -1.36596,-1.47885 -0.64347,0 -1.00471,0.37254 -0.37254,0.39511 -0.37254,1.10631 v 3.42054 h -0.8128 v -5.55414 h 0.8128 v 0.6096 q 0.59831,-0.67734 1.55787,-0.67734 0.90311,0 1.4224,0.51929 0.57574,0.56445 0.57574,1.54658 v 3.55601 z m 4.34621,0 q -0.68863,0 -1.06116,-0.44027 -0.36125,-0.39511 -0.36125,-1.04987 v -3.40925 h -0.69991 v -0.62089 h 0.69991 v -1.73849 h 0.8128 v 1.73849 h 1.18534 v 0.62089 h -1.18534 v 3.38667 q 0,0.8128 0.75636,0.8128 h 0.42898 v 0.69992 z m 5.29448,-4.49299 q -0.4064,-0.4064 -0.95956,-0.4064 -0.59831,0 -0.97085,0.42898 -0.36124,0.41769 -0.36124,1.06116 v 3.40925 h -0.8128 v -5.55414 h 0.8128 v 0.67733 q 0.48542,-0.74507 1.55787,-0.74507 0.8128,0 1.33209,0.51929 z m 4.68488,4.49299 v -0.53058 q -0.59831,0.59831 -1.60303,0.59831 -1.07244,0 -1.56915,-0.508 -0.41769,-0.41769 -0.41769,-1.12889 0,-0.74507 0.49671,-1.16276 0.508,-0.44026 1.4224,-0.44026 h 1.67076 v -0.53058 q 0,-1.2192 -1.4224,-1.2192 -0.94827,0 -1.39983,0.63217 l -0.55315,-0.508 q 0.36124,-0.46284 0.83537,-0.65475 0.42898,-0.16934 1.12889,-0.16934 2.22392,0 2.22392,1.85138 v 3.7705 z m 0,-2.56258 h -1.55787 q -1.24178,0 -1.24178,0.98213 0,0.94827 1.27565,0.94827 0.85795,0 1.24177,-0.37254 0.28223,-0.27093 0.28223,-0.95955 z m 4.17688,2.56258 q -0.69991,0 -1.07245,-0.41769 -0.33866,-0.39511 -0.33866,-1.06116 v -6.55885 h 0.8128 v 6.52498 q 0,0.8128 0.74506,0.8128 h 0.44027 v 0.69992 z"
       id="text14"
       style="font-size:11.2889px;font-family:DIN;-inkscape-font-specification:DIN;text-align:center;letter-spacing:0px;word-spacing:0px;text-anchor:middle;stroke-linejoin:round;stroke-miterlimit:3.9;stroke-dasharray:1, 1;paint-order:markers stroke fill"
       aria-label="Southampton Central" />
    <path
       style="fill:#000000;stroke:#000000;stroke-width:2;stroke-linejoin:round;stroke-miterlimit:3.9;stroke-dasharray:none;stroke-dashoffset:0;paint-order:markers stroke fill"
       d="M 560.24893,140.6712 H 780.69471"
       id="path16" />
    <path
       style="fill:none;stroke:#000000;stroke-width:2;stroke-linejoin:round;stroke-miterlimit:3.9;stroke-dasharray:none;stroke-dashoffset:0;paint-order:markers stroke fill"
       d="m 810.55457,110.81122 h 39.33556"
       id="path19"
       sodipodi:nodetypes="cc" />
    <g
       id="g20">
      <path
         id="path17"
         style="fill:none;stroke:#000000;stroke-width:2;stroke-linejoin:round;stroke-miterlimit:3.9;paint-order:markers stroke fill"
         d="M 795.62469,125.74121 A 14.929988,14.929988 0 0 1 780.6947,140.6712" />
      <path
         id="path20"
         style="fill:none;stroke:#000000;stroke-width:2;stroke-linejoin:round;stroke-miterlimit:3.9;paint-order:markers stroke fill"
         transform="scale(-1)"
         d="m -795.62458,-125.74121 a 14.929988,14.929988 0 0 1 -14.92999,14.92999" />
    </g>
    <g
       id="g22"
       transform="matrix(1,0,0,-1,0,281.3424)">
      <path
         id="path21"
         style="fill:none;stroke:#000000;stroke-width:2;stroke-linejoin:round;stroke-miterlimit:3.9;paint-order:markers stroke fill"
         d="M 795.62469,125.74121 A 14.929988,14.929988 0 0 1 780.6947,140.6712" />
      <path
         id="path22"
         style="fill:none;stroke:#000000;stroke-width:2;stroke-linejoin:round;stroke-miterlimit:3.9;paint-order:markers stroke fill"
         transform="scale(-1)"
         d="m -795.62458,-125.74121 a 14.929988,14.929988 0 0 1 -14.92999,14.92999" />
    </g>
    <path
       style="fill:none;stroke:#000000;stroke-width:2;stroke-linejoin:round;stroke-miterlimit:3.9;stroke-dasharray:none;stroke-dashoffset:0;paint-order:markers stroke fill"
       d="m 810.55457,170.53118 h 39.33556"
       id="path23"
       sodipodi:nodetypes="cc" />
    <path
       style="fill:none;stroke:#000000;stroke-width:2;stroke-linejoin:round;stroke-miterlimit:3.9;stroke-dasharray:none;stroke-dashoffset:0;paint-order:markers stroke fill"
       d="m 530.38905,110.81122 -356.07463,0"
       id="path24"
       sodipodi:nodetypes="cc" />
    <g
       id="g26"
       transform="matrix(-1,0,0,1,1340.9436,0)">
      <path
         id="path25"
         style="fill:none;stroke:#000000;stroke-width:2;stroke-linejoin:round;stroke-miterlimit:3.9;paint-order:markers stroke fill"
         d="M 795.62469,125.74121 A 14.929988,14.929988 0 0 1 780.6947,140.6712" />
      <path
         id="path26"
         style="fill:none;stroke:#000000;stroke-width:2;stroke-linejoin:round;stroke-miterlimit:3.9;paint-order:markers stroke fill"
         transform="scale(-1)"
         d="m -795.62458,-125.74121 a 14.929988,14.929988 0 0 1 -14.92999,14.92999" />
    </g>
    <g
       id="g28"
       transform="rotate(180,670.47181,140.6712)">
      <path
         id="path27"
         style="fill:none;stroke:#000000;stroke-width:2;stroke-linejoin:round;stroke-miterlimit:3.9;paint-order:markers stroke fill"
         d="M 795.62469,125.74121 A 14.929988,14.929988 0 0 1 780.6947,140.6712" />
      <path
         id="path28"
         style="fill:none;stroke:#000000;stroke-width:2;stroke-linejoin:round;stroke-miterlimit:3.9;paint-order:markers stroke fill"
         transform="scale(-1)"
         d="m -795.62458,-125.74121 a 14.929988,14.929988 0 0 1 -14.92999,14.92999" />
    </g>
    <path
       style="fill:none;stroke:#000000;stroke-width:2;stroke-linejoin:round;stroke-miterlimit:3.9;stroke-dasharray:none;stroke-dashoffset:0;paint-order:markers stroke fill"
       d="M 530.38905,170.53118 H 240.95465"
       id="path29"
       sodipodi:nodetypes="cc" />
    <path
       style="fill:none;stroke:#808080;stroke-width:2;stroke-linejoin:round;stroke-miterlimit:3.9;stroke-dasharray:none;stroke-dashoffset:0;paint-order:markers stroke fill"
       d="m 64.962781,104.57248 v 7.23874"
       id="path30" />
    <path
       style="fill:none;stroke:#000000;stroke-width:2;stroke-linejoin:round;stroke-miterlimit:3.9;stroke-dasharray:none;stroke-dashoffset:0;paint-order:markers stroke fill"
       d="m 175.31488,104.57248 v 7.23874"
       id="path31" />
    <path
       style="fill:none;stroke:#000000;stroke-width:2;stroke-linejoin:round;stroke-miterlimit:3.9;stroke-dasharray:none;stroke-dashoffset:0;paint-order:markers stroke fill"
       d="m 285.667,104.57248 v 7.23874"
       id="path32" />
    <path
       style="fill:none;stroke:#000000;stroke-width:2;stroke-linejoin:round;stroke-miterlimit:3.9;stroke-dasharray:none;stroke-dashoffset:0;paint-order:markers stroke fill"
       d="m 396.01909,104.57248 v 7.23874"
       id="path33" />
    <path
       style="fill:none;stroke:#000000;stroke-width:2;stroke-linejoin:round;stroke-miterlimit:3.9;stroke-dasharray:none;stroke-dashoffset:0;paint-order:markers stroke fill"
       d="m 506.37119,104.57248 v 7.23874"
       id="path34" />
    <path
       style="fill:none;stroke:#000000;stroke-width:2;stroke-linejoin:round;stroke-miterlimit:3.9;stroke-dasharray:none;stroke-dashoffset:0;paint-order:markers stroke fill"
       d="m 430.98723,169.53118 v 7.23874"
       id="path35" />
    <path
       style="fill:none;stroke:#000000;stroke-width:2;stroke-linejoin:round;stroke-miterlimit:3.9;stroke-dasharray:none;stroke-dashoffset:0;paint-order:markers stroke fill"
       d="m 241.586,169.53118 v 7.23874"
       id="path36" />
    <path
       style="fill:none;stroke:#000000;stroke-width:2;stroke-linejoin:round;stroke-miterlimit:3.9;stroke-dasharray:none;stroke-dashoffset:0;paint-order:markers stroke fill"
       d="m 848.54001,104.57248 v 7.23874"
       id="path37" />
    <path
       style="fill:none;stroke:#000000;stroke-width:2;stroke-linejoin:round;stroke-miterlimit:3.9;stroke-dasharray:none;stroke-dashoffset:0;paint-order:markers stroke fill"
       d="m 848.54001,169.53118 v 7.23874"
       id="path38" />
    <path
       id="path39"
       style="fill:#ffffff;stroke:#000000;stroke-width:2;stroke-linejoin:round;stroke-miterlimit:3.9"
       d="m 628.07215,140.6712 a 6.0570717,6.0570717 0 0 1 -6.05707,6.05708 6.0570717,6.0570717 0 0 1 -6.05708,-6.05708 6.0570717,6.0570717 0 0 1 6.05708,-6.05707 6.0570717,6.0570717 0 0 1 6.05707,6.05707 z" />
    <path
       id="circle39"
       style="fill:#ffffff;stroke:#000000;stroke-width:2;stroke-linejoin:round;stroke-miterlimit:3.9"
       d="m 738.4242,140.6712 a 6.0570717,6.0570717 0 0 1 -6.05707,6.05708 6.0570717,6.0570717 0 0 1 -6.05708,-6.05708 6.0570717,6.0570717 0 0 1 6.05708,-6.05707 6.0570717,6.0570717 0 0 1 6.05707,6.05707 z" />
    <path
       style="fill:none;stroke:#808080;stroke-width:2;stroke-linejoin:round;stroke-miterlimit:3.9;stroke-dasharray:2, 2;stroke-dashoffset:0;paint-order:markers stroke fill"
       d="M 175.25311,110.81122 H 65.830995"
       id="path40"
       sodipodi:nodetypes="cc" />
  </g>
</svg>
