<?xml version="1.0" encoding="UTF-8" standalone="no"?>
<!-- Created with Inkscape (http://www.inkscape.org/) -->

<svg
   width="274.3035mm"
   height="67.645905mm"
   viewBox="0 0 274.3035 67.645905"
   version="1.1"
   id="svg1"
   xml:space="preserve"
   sodipodi:docname="700kei-nose-diagram.svg"
   inkscape:version="1.3 (0e150ed, 2023-07-21)"
   xmlns:inkscape="http://www.inkscape.org/namespaces/inkscape"
   xmlns:sodipodi="http://sodipodi.sourceforge.net/DTD/sodipodi-0.dtd"
   xmlns="http://www.w3.org/2000/svg"
   xmlns:svg="http://www.w3.org/2000/svg"><sodipodi:namedview
     id="namedview1"
     pagecolor="#ffffff"
     bordercolor="#000000"
     borderopacity="0.25"
     inkscape:showpageshadow="2"
     inkscape:pageopacity="0.0"
     inkscape:pagecheckerboard="0"
     inkscape:deskcolor="#d1d1d1"
     inkscape:document-units="mm"
     inkscape:zoom="0.58422011"
     inkscape:cx="788.23031"
     inkscape:cy="-79.593289"
     inkscape:window-width="1512"
     inkscape:window-height="862"
     inkscape:window-x="0"
     inkscape:window-y="34"
     inkscape:window-maximized="1"
     inkscape:current-layer="layer1" /><defs
     id="defs1"><marker
       style="overflow:visible"
       id="marker9"
       refX="0"
       refY="0"
       orient="auto-start-reverse"
       inkscape:stockid="Dart arrow"
       markerWidth="1"
       markerHeight="1"
       viewBox="0 0 1 1"
       inkscape:isstock="true"
       inkscape:collect="always"
       preserveAspectRatio="xMidYMid"><path
         style="fill:context-stroke;fill-rule:evenodd;stroke:none"
         d="M 0,0 5,-5 -12.5,0 5,5 Z"
         transform="scale(-0.5)"
         id="path9" /></marker><marker
       style="overflow:visible"
       id="DartArrow"
       refX="0"
       refY="0"
       orient="auto-start-reverse"
       inkscape:stockid="Dart arrow"
       markerWidth="1"
       markerHeight="1"
       viewBox="0 0 1 1"
       inkscape:isstock="true"
       inkscape:collect="always"
       preserveAspectRatio="xMidYMid"><path
         style="fill:context-stroke;fill-rule:evenodd;stroke:none"
         d="M 0,0 5,-5 -12.5,0 5,5 Z"
         transform="scale(-0.5)"
         id="path6" /></marker></defs><g
     inkscape:label="Layer 1"
     inkscape:groupmode="layer"
     id="layer1"
     transform="translate(115.08535,-149.8803)"><text
       xml:space="preserve"
       style="font-style:normal;font-variant:normal;font-weight:normal;font-stretch:normal;font-size:9.87777px;font-family:DIN;-inkscape-font-specification:DIN;text-align:center;letter-spacing:0px;word-spacing:0px;text-anchor:middle;fill:#000000;stroke:none;stroke-width:1.01291;stroke-linejoin:round;stroke-miterlimit:3.9;stroke-dasharray:none"
       x="30.971746"
       y="193.69633"
       id="text6"><tspan
         sodipodi:role="line"
         id="tspan6"
         style="stroke-width:1.01291"
         x="30.971746"
         y="193.69633"></tspan></text><path
       id="path2"
       style="fill:none;stroke:#000000;stroke-width:0.644351;stroke-linejoin:round;stroke-miterlimit:3.9;stroke-dasharray:none"
       d="m -113.95969,179.97073 c 0,3.995 2.5692,8.59308 7.60438,10.57053 12.029371,4.72423 44.789217,6.63768 63.445562,6.63768 m -71.049942,-17.10826 c 0,-3.995 2.5692,-8.59309 7.60438,-10.57053 12.029371,-4.72423 44.789217,-6.63768 63.445562,-6.63768 H 158.89596 v 34.30887 l -201.805708,0.008" /><rect
       style="fill:none;stroke:#000000;stroke-width:0.644351;stroke-linejoin:round;stroke-miterlimit:3.9;stroke-dasharray:none"
       id="rect2"
       width="142.81911"
       height="32.490971"
       x="-19.764744"
       y="163.79335" /><rect
       style="fill:none;stroke:#000000;stroke-width:0.644351;stroke-linejoin:round;stroke-miterlimit:3.9;stroke-dasharray:none"
       id="rect3"
       width="34.15313"
       height="32.12294"
       x="123.97069"
       y="163.95667" /><rect
       style="fill:none;stroke:#000000;stroke-width:0.644351;stroke-linejoin:round;stroke-miterlimit:3.9;stroke-dasharray:none"
       id="rect4"
       width="19.860556"
       height="32.556232"
       x="-40.577206"
       y="163.72438" /><path
       style="font-size:6.28363px;font-family:DIN;-inkscape-font-specification:DIN;text-align:center;letter-spacing:0px;word-spacing:0px;text-anchor:middle;stroke-width:0.644351;stroke-linejoin:round;stroke-miterlimit:3.9"
       d="m 33.522877,178.4051 q 0,0.59694 -0.383302,0.96139 -0.383301,0.35817 -0.999097,0.35817 h -1.187606 v 1.84111 h -0.477556 v -4.47395 h 1.665162 q 0.615796,0 0.999097,0.35188 0.383302,0.36445 0.383302,0.9614 z m -0.477556,0 q 0,-0.43357 -0.263913,-0.66607 -0.251345,-0.21992 -0.684915,-0.21992 h -1.143621 v 1.77826 h 1.143621 q 0.43357,0 0.684915,-0.22621 0.263913,-0.23249 0.263913,-0.66606 z m 2.997285,3.16067 v -0.29534 q -0.333033,0.33304 -0.892276,0.33304 -0.596945,0 -0.873424,-0.28277 -0.232495,-0.23249 -0.232495,-0.62836 0,-0.41472 0.27648,-0.64721 0.282763,-0.24506 0.791737,-0.24506 h 0.929978 v -0.29534 q 0,-0.67863 -0.791738,-0.67863 -0.527825,0 -0.77917,0.35189 L 34.1638,178.89522 q 0.201076,-0.25763 0.464989,-0.36445 0.238778,-0.0942 0.628363,-0.0942 1.237875,0 1.237875,1.03051 v 2.09874 z m 0,-1.42639 h -0.867141 q -0.6912,0 -0.6912,0.54668 0,0.52782 0.710051,0.52782 0.477555,0 0.691199,-0.20736 0.157091,-0.1508 0.157091,-0.53411 z m 3.782739,0.52154 q 0,0.43986 -0.3456,0.69749 -0.339316,0.24506 -0.911126,0.24506 -0.804305,0 -1.269294,-0.44614 l 0.301615,-0.30161 q 0.339316,0.35816 0.961395,0.35816 0.823156,0 0.823156,-0.54667 0,-0.40844 -0.515258,-0.45243 l -0.508974,-0.044 q -0.923694,-0.0754 -0.923694,-0.82944 0,-0.41472 0.320465,-0.66606 0.314182,-0.23878 0.816872,-0.23878 0.703767,0 1.112203,0.33303 l -0.295331,0.29533 q -0.320465,-0.24506 -0.823155,-0.24506 -0.6912,0 -0.6912,0.50897 0,0.40844 0.540393,0.45242 l 0.496406,0.044 q 0.911127,0.0817 0.911127,0.83572 z m 3.016127,0 q 0,0.43986 -0.345599,0.69749 -0.339316,0.24506 -0.911127,0.24506 -0.804304,0 -1.269293,-0.44614 l 0.301614,-0.30161 q 0.339316,0.35816 0.961396,0.35816 0.823155,0 0.823155,-0.54667 0,-0.40844 -0.515258,-0.45243 l -0.508974,-0.044 q -0.923693,-0.0754 -0.923693,-0.82944 0,-0.41472 0.320465,-0.66606 0.314181,-0.23878 0.816872,-0.23878 0.703766,0 1.112202,0.33303 l -0.29533,0.29533 q -0.320465,-0.24506 -0.823156,-0.24506 -0.691199,0 -0.691199,0.50897 0,0.40844 0.540392,0.45242 l 0.496407,0.044 q 0.911126,0.0817 0.911126,0.83572 z m 1.168746,-0.52154 q 0,0.50898 0.232494,0.78546 0.238778,0.28276 0.678632,0.28276 0.458705,0 0.810588,-0.35188 l 0.307898,0.27019 q -0.477556,0.47756 -1.131053,0.47756 -0.634647,0 -0.980247,-0.3833 -0.370734,-0.40216 -0.370734,-1.20018 0,-0.74775 0.339316,-1.16875 0.339316,-0.41472 0.929977,-0.41472 0.596945,0 0.936261,0.40215 0.333033,0.40215 0.333033,1.09335 v 0.20736 z m 1.633743,-0.33931 q -0.01885,-0.32675 -0.09425,-0.51526 -0.194793,-0.46499 -0.722618,-0.46499 -0.527824,0 -0.722617,0.46499 -0.0754,0.18851 -0.09425,0.51526 z m 3.393152,1.7657 v -1.90394 q 0,-0.82316 -0.760319,-0.82316 -0.358167,0 -0.559243,0.20736 -0.20736,0.21993 -0.20736,0.6158 v 1.90394 H 47.05777 v -3.09155 h 0.452421 v 0.33932 q 0.333033,-0.37702 0.867141,-0.37702 0.50269,0 0.791737,0.28904 0.320466,0.31419 0.320466,0.86086 v 1.97935 z m 3.833004,0.0943 q 0,0.58438 -0.339316,0.94883 -0.351884,0.37702 -0.948828,0.37702 -0.590662,0 -1.049367,-0.41472 l 0.295331,-0.28905 q 0.3456,0.3079 0.741468,0.3079 0.427287,0 0.647214,-0.27648 0.201076,-0.25135 0.201076,-0.67235 v -0.48384 q -0.314181,0.40215 -0.867141,0.40215 -0.471272,0 -0.747752,-0.27648 -0.377017,-0.37702 -0.377017,-1.28814 0,-0.91113 0.377017,-1.28815 0.270197,-0.27019 0.754036,-0.27019 0.559243,0 0.867141,0.40215 v -0.36445 h 0.446138 z m -0.452422,-1.66516 q 0,-0.52783 -0.131956,-0.79802 -0.175942,-0.35817 -0.634647,-0.35817 -0.458705,0 -0.64093,0.35817 -0.131956,0.27019 -0.131956,0.79802 0,0.52782 0.131956,0.79174 0.182225,0.36445 0.64093,0.36445 0.458705,0 0.634647,-0.36445 0.131956,-0.26392 0.131956,-0.79174 z m 1.866234,0.14452 q 0,0.50898 0.232494,0.78546 0.238778,0.28276 0.678632,0.28276 0.458705,0 0.810588,-0.35188 l 0.307898,0.27019 q -0.477556,0.47756 -1.131053,0.47756 -0.634647,0 -0.980246,-0.3833 -0.370735,-0.40216 -0.370735,-1.20018 0,-0.74775 0.339316,-1.16875 0.339316,-0.41472 0.929978,-0.41472 0.596944,0 0.93626,0.40215 0.333033,0.40215 0.333033,1.09335 v 0.20736 z m 1.633744,-0.33931 q -0.01885,-0.32675 -0.09426,-0.51526 -0.194792,-0.46499 -0.722617,-0.46499 -0.527825,0 -0.722618,0.46499 -0.0754,0.18851 -0.09425,0.51526 z m 3.141807,-0.73519 q -0.226211,-0.22621 -0.534108,-0.22621 -0.333033,0 -0.540393,0.23878 -0.201076,0.23249 -0.201076,0.59066 v 1.89766 h -0.452421 v -3.09155 h 0.452421 v 0.37702 q 0.270196,-0.41472 0.867141,-0.41472 0.452422,0 0.741469,0.28904 z m 4.235157,2.50089 v -0.29534 q -0.333033,0.33304 -0.892276,0.33304 -0.596945,0 -0.873424,-0.28277 -0.232495,-0.23249 -0.232495,-0.62836 0,-0.41472 0.27648,-0.64721 0.282763,-0.24506 0.791737,-0.24506 h 0.929978 v -0.29534 q 0,-0.67863 -0.791738,-0.67863 -0.527825,0 -0.77917,0.35189 l -0.307898,-0.28277 q 0.201076,-0.25763 0.464989,-0.36445 0.238778,-0.0942 0.628363,-0.0942 1.237875,0 1.237875,1.03051 v 2.09874 z m 0,-1.42639 h -0.867141 q -0.6912,0 -0.6912,0.54668 0,0.52782 0.710051,0.52782 0.477555,0 0.691199,-0.20736 0.157091,-0.1508 0.157091,-0.53411 z m 3.280047,-1.0745 q -0.226211,-0.22621 -0.534109,-0.22621 -0.333032,0 -0.540392,0.23878 -0.201076,0.23249 -0.201076,0.59066 v 1.89766 h -0.452422 v -3.09155 h 0.452422 v 0.37702 q 0.270196,-0.41472 0.867141,-0.41472 0.452421,0 0.741468,0.28904 z m 0.986524,1.0745 q 0,0.50898 0.232494,0.78546 0.238778,0.28276 0.678632,0.28276 0.458705,0 0.810588,-0.35188 l 0.307898,0.27019 q -0.477556,0.47756 -1.131053,0.47756 -0.634647,0 -0.980247,-0.3833 -0.370734,-0.40216 -0.370734,-1.20018 0,-0.74775 0.339316,-1.16875 0.339316,-0.41472 0.929978,-0.41472 0.596944,0 0.93626,0.40215 0.333033,0.40215 0.333033,1.09335 v 0.20736 z m 1.633743,-0.33931 q -0.01885,-0.32675 -0.09425,-0.51526 -0.194793,-0.46499 -0.722617,-0.46499 -0.527825,0 -0.722618,0.46499 -0.0754,0.18851 -0.09425,0.51526 z m 3.166944,1.7657 v -0.29534 q -0.333032,0.33304 -0.892275,0.33304 -0.596945,0 -0.873425,-0.28277 -0.232494,-0.23249 -0.232494,-0.62836 0,-0.41472 0.27648,-0.64721 0.282763,-0.24506 0.791737,-0.24506 h 0.929977 v -0.29534 q 0,-0.67863 -0.791737,-0.67863 -0.527825,0 -0.77917,0.35189 l -0.307898,-0.28277 q 0.201076,-0.25763 0.464989,-0.36445 0.238778,-0.0942 0.628363,-0.0942 1.237875,0 1.237875,1.03051 v 2.09874 z m 0,-1.42639 h -0.86714 q -0.6912,0 -0.6912,0.54668 0,0.52782 0.71005,0.52782 0.477556,0 0.6912,-0.20736 0.15709,-0.1508 0.15709,-0.53411 z"
       id="text4"
       aria-label="Passenger area" /><path
       style="font-size:6.28363px;font-family:DIN;-inkscape-font-specification:DIN;text-align:center;letter-spacing:0px;word-spacing:0px;text-anchor:middle;stroke-width:0.644351;stroke-linejoin:round;stroke-miterlimit:3.9"
       d="m -183.18514,-34.474054 q 0,0.584378 -0.42101,0.929978 -0.421,0.339316 -1.12477,0.339316 -0.94254,0 -1.5332,-0.590662 l 0.32675,-0.326748 q 0.49012,0.490123 1.21902,0.490123 0.49012,0 0.77289,-0.219927 0.28276,-0.219927 0.28276,-0.609512 0,-0.370735 -0.21364,-0.559243 -0.17595,-0.150808 -0.58438,-0.213644 l -0.52154,-0.08169 q -0.53411,-0.08797 -0.82316,-0.339316 -0.33931,-0.301614 -0.33931,-0.835723 0,-0.57181 0.3833,-0.91741 0.38958,-0.345599 1.04936,-0.345599 0.78546,0 1.33213,0.490123 l -0.30789,0.307898 q -0.42101,-0.383302 -1.04309,-0.383302 -0.43985,0 -0.69748,0.226211 -0.24506,0.226211 -0.24506,0.603228 0,0.339316 0.20107,0.515258 0.20736,0.182225 0.60323,0.245062 l 0.49013,0.0754 q 0.54667,0.08169 0.81687,0.314182 0.37702,0.320465 0.37702,0.885991 z m 1.78454,1.231592 q -0.3833,0 -0.59066,-0.245062 -0.20107,-0.219927 -0.20107,-0.584377 v -1.897657 h -0.38959 v -0.345599 h 0.38959 v -0.967679 h 0.45242 v 0.967679 h 0.65978 v 0.345599 h -0.65978 v 1.885089 q 0,0.452422 0.421,0.452422 h 0.23878 v 0.389585 z m 2.92188,0 v -0.295331 q -0.33304,0.333033 -0.89228,0.333033 -0.59695,0 -0.87342,-0.282764 -0.2325,-0.232494 -0.2325,-0.628363 0,-0.414719 0.27648,-0.647214 0.28276,-0.245061 0.79174,-0.245061 h 0.92998 v -0.295331 q 0,-0.678632 -0.79174,-0.678632 -0.52783,0 -0.77917,0.351883 l -0.3079,-0.282763 q 0.20108,-0.257629 0.46499,-0.36445 0.23878,-0.09425 0.62836,-0.09425 1.23788,0 1.23788,1.030515 v 2.098733 z m 0,-1.426384 h -0.86715 q -0.6912,0 -0.6912,0.546676 0,0.527825 0.71006,0.527825 0.47755,0 0.69119,-0.20736 0.1571,-0.150807 0.1571,-0.534109 z m 2.10501,-1.300712 v 2.727096 h -0.45243 v -2.727096 h -0.39586 v -0.345599 h 0.39586 v -0.584378 q 0,-0.36445 0.1948,-0.584377 0.21364,-0.245062 0.59066,-0.245062 h 0.32675 v 0.389585 h -0.24507 q -0.41471,0 -0.41471,0.452422 v 0.57181 h 0.65978 v 0.345599 z m 1.97305,0 v 2.727096 h -0.45242 v -2.727096 h -0.39587 v -0.345599 h 0.39587 v -0.584378 q 0,-0.36445 0.19479,-0.584377 0.21364,-0.245062 0.59066,-0.245062 h 0.32675 v 0.389585 h -0.24506 q -0.41472,0 -0.41472,0.452422 v 0.57181 h 0.65978 v 0.345599 z"
       id="text5"
       transform="rotate(-90)"
       aria-label="Staff" /><path
       style="font-size:6.28363px;font-family:DIN;-inkscape-font-specification:DIN;text-align:center;letter-spacing:0px;word-spacing:0px;text-anchor:middle;stroke-width:0.644351;stroke-linejoin:round;stroke-miterlimit:3.9"
       d="m 130.92949,181.56577 h -0.38959 l -1.47036,-4.47395 h 0.50269 l 1.16247,3.61937 1.16247,-3.61937 h 0.50269 z m 2.11757,-1.42639 q 0,0.50898 0.2325,0.78546 0.23878,0.28276 0.67863,0.28276 0.45871,0 0.81059,-0.35188 l 0.3079,0.27019 q -0.47756,0.47756 -1.13106,0.47756 -0.63464,0 -0.98024,-0.3833 -0.37074,-0.40216 -0.37074,-1.20018 0,-0.74775 0.33932,-1.16875 0.33931,-0.41472 0.92998,-0.41472 0.59694,0 0.93626,0.40215 0.33303,0.40215 0.33303,1.09335 v 0.20736 z m 1.63375,-0.33931 q -0.0189,-0.32675 -0.0943,-0.51526 -0.19479,-0.46499 -0.72261,-0.46499 -0.52783,0 -0.72262,0.46499 -0.0754,0.18851 -0.0943,0.51526 z m 3.6445,0.86085 q 0,0.43986 -0.3456,0.69749 -0.33932,0.24506 -0.91113,0.24506 -0.80431,0 -1.26929,-0.44614 l 0.30161,-0.30161 q 0.33932,0.35816 0.9614,0.35816 0.82315,0 0.82315,-0.54667 0,-0.40844 -0.51526,-0.45243 l -0.50897,-0.044 q -0.92369,-0.0754 -0.92369,-0.82944 0,-0.41472 0.32046,-0.66606 0.31418,-0.23878 0.81687,-0.23878 0.70377,0 1.11221,0.33303 l -0.29534,0.29533 q -0.32046,-0.24506 -0.82315,-0.24506 -0.6912,0 -0.6912,0.50897 0,0.40844 0.54039,0.45242 l 0.49641,0.044 q 0.91113,0.0817 0.91113,0.83572 z m 1.69028,0.90485 q -0.3833,0 -0.59066,-0.24507 -0.20108,-0.21992 -0.20108,-0.58437 v -1.89766 h -0.38958 v -0.3456 h 0.38958 v -0.96768 h 0.45242 v 0.96768 h 0.65979 v 0.3456 h -0.65979 v 1.88509 q 0,0.45242 0.42101,0.45242 h 0.23878 v 0.38959 z m 1.19388,-3.97126 v -0.50897 h 0.50898 v 0.50897 z m 0.0251,3.97126 v -3.09155 h 0.45242 v 3.09155 z m 4.04664,-1.54578 q 0,0.93626 -0.37701,1.31328 -0.2702,0.2702 -0.75404,0.2702 -0.55924,0 -0.87342,-0.40844 v 0.37074 h -0.45243 v -4.47395 h 0.45243 v 1.74057 q 0.30789,-0.39587 0.87342,-0.39587 0.48384,0 0.75404,0.27019 0.37701,0.37702 0.37701,1.31328 z m -0.45242,0 q 0,-0.54667 -0.13195,-0.81687 -0.18223,-0.36445 -0.64093,-0.36445 -0.45871,0 -0.64093,0.36445 -0.13824,0.2702 -0.13824,0.81687 0,0.54668 0.13824,0.81687 0.18222,0.36445 0.64093,0.36445 0.4587,0 0.64093,-0.36445 0.13195,-0.27019 0.13195,-0.81687 z m 3.3743,1.54578 v -0.3456 q -0.33303,0.3833 -0.87342,0.3833 -0.50898,0 -0.79802,-0.28905 -0.31419,-0.3079 -0.31419,-0.86714 v -1.97306 h 0.45243 v 1.90394 q 0,0.82315 0.75403,0.82315 0.35817,0 0.55924,-0.20735 0.21365,-0.21993 0.21365,-0.6158 v -1.90394 h 0.45242 v 3.09155 z m 2.35007,0 q -0.38959,0 -0.59695,-0.2325 -0.18851,-0.21993 -0.18851,-0.59066 v -3.65079 h 0.45243 v 3.63194 q 0,0.45242 0.41471,0.45242 h 0.24507 v 0.38959 z m 1.21901,-1.42639 q 0,0.50898 0.23249,0.78546 0.23878,0.28276 0.67863,0.28276 0.45871,0 0.81059,-0.35188 l 0.3079,0.27019 q -0.47756,0.47756 -1.13106,0.47756 -0.63464,0 -0.98024,-0.3833 -0.37074,-0.40216 -0.37074,-1.20018 0,-0.74775 0.33932,-1.16875 0.33932,-0.41472 0.92998,-0.41472 0.59694,0 0.93626,0.40215 0.33303,0.40215 0.33303,1.09335 v 0.20736 z m 1.63374,-0.33931 q -0.0188,-0.32675 -0.0942,-0.51526 -0.1948,-0.46499 -0.72262,-0.46499 -0.52783,0 -0.72262,0.46499 -0.0754,0.18851 -0.0942,0.51526 z"
       id="text7"
       aria-label="Vestibule" /><path
       style="font-size:6.28363px;font-family:DIN;-inkscape-font-specification:DIN;text-align:center;letter-spacing:0px;word-spacing:0px;text-anchor:middle;stroke-width:0.644351;stroke-linejoin:round;stroke-miterlimit:3.9"
       d="m -102.28745,181.56577 -2.37522,-3.58796 v 3.58796 h -0.47755 v -4.47395 h 0.45242 l 2.37521,3.57539 v -3.57539 h 0.47756 v 4.47395 z m 4.027794,-1.54578 q 0,0.84829 -0.377018,1.23159 -0.351883,0.35189 -0.885991,0.35189 -0.534105,0 -0.885995,-0.35189 -0.37702,-0.3833 -0.37702,-1.23159 0,-0.84829 0.37702,-1.23159 0.35189,-0.35188 0.885995,-0.35188 0.534108,0 0.885991,0.35188 0.377018,0.3833 0.377018,1.23159 z m -0.452421,0 q 0,-0.33303 -0.0377,-0.52154 -0.05655,-0.28276 -0.20736,-0.43357 -0.22621,-0.22621 -0.565526,-0.22621 -0.333033,0 -0.559245,0.22621 -0.15081,0.15081 -0.20736,0.43357 -0.044,0.19479 -0.044,0.52154 0,0.32675 0.044,0.52154 0.0566,0.28277 0.20736,0.43357 0.226212,0.22621 0.559245,0.22621 0.339316,0 0.565526,-0.22621 0.150807,-0.1508 0.20736,-0.43357 0.0377,-0.18851 0.0377,-0.52154 z m 3.650781,0.64093 q 0,0.43986 -0.3456,0.69749 -0.339316,0.24506 -0.911126,0.24506 -0.804305,0 -1.269293,-0.44614 l 0.301614,-0.30161 q 0.339316,0.35816 0.961395,0.35816 0.823156,0 0.823156,-0.54667 0,-0.40844 -0.515258,-0.45243 l -0.508974,-0.044 q -0.923693,-0.0754 -0.923693,-0.82944 0,-0.41472 0.320465,-0.66606 0.314181,-0.23878 0.816872,-0.23878 0.703766,0 1.112202,0.33303 l -0.29533,0.29533 q -0.320466,-0.24506 -0.823156,-0.24506 -0.691199,0 -0.691199,0.50897 0,0.40844 0.540392,0.45242 l 0.496407,0.044 q 0.911126,0.0817 0.911126,0.83572 z m 1.168745,-0.52154 q 0,0.50898 0.232494,0.78546 0.238778,0.28276 0.678632,0.28276 0.458705,0 0.810588,-0.35188 l 0.307898,0.27019 q -0.477556,0.47756 -1.131053,0.47756 -0.634647,0 -0.980246,-0.3833 -0.370735,-0.40216 -0.370735,-1.20018 0,-0.74775 0.339316,-1.16875 0.339317,-0.41472 0.929978,-0.41472 0.596945,0 0.936261,0.40215 0.333032,0.40215 0.333032,1.09335 v 0.20736 z m 1.633744,-0.33931 q -0.01885,-0.32675 -0.09425,-0.51526 -0.194792,-0.46499 -0.722617,-0.46499 -0.527825,0 -0.722618,0.46499 -0.0754,0.18851 -0.09425,0.51526 z m 4.731557,1.7657 v -0.29534 q -0.333032,0.33304 -0.892275,0.33304 -0.596945,0 -0.873425,-0.28277 -0.232494,-0.23249 -0.232494,-0.62836 0,-0.41472 0.276479,-0.64721 0.282764,-0.24506 0.791738,-0.24506 h 0.929977 v -0.29534 q 0,-0.67863 -0.791737,-0.67863 -0.527825,0 -0.77917,0.35189 l -0.307898,-0.28277 q 0.201076,-0.25763 0.464988,-0.36445 0.238778,-0.0942 0.628363,-0.0942 1.237875,0 1.237875,1.03051 v 2.09874 z m 0,-1.42639 h -0.867141 q -0.691199,0 -0.691199,0.54668 0,0.52782 0.71005,0.52782 0.477556,0 0.691199,-0.20736 0.157091,-0.1508 0.157091,-0.53411 z m 3.531393,1.42639 v -1.90394 q 0,-0.82316 -0.760319,-0.82316 -0.358167,0 -0.559243,0.20736 -0.20736,0.21993 -0.20736,0.6158 v 1.90394 H -85.9752 v -3.09155 h 0.452421 v 0.33932 q 0.333032,-0.37702 0.867141,-0.37702 0.50269,0 0.791737,0.28904 0.320466,0.31419 0.320466,0.86086 v 1.97935 z m 3.399435,0 v -0.37074 q -0.314181,0.40844 -0.879708,0.40844 -0.48384,0 -0.754036,-0.2702 -0.377017,-0.37702 -0.377017,-1.31328 0,-0.93626 0.377017,-1.31328 0.270196,-0.27019 0.754036,-0.27019 0.565527,0 0.873424,0.39587 v -1.74057 h 0.452422 v 4.47395 z m -0.0063,-1.54578 q 0,-0.54667 -0.131956,-0.81687 -0.182225,-0.36445 -0.64093,-0.36445 -0.458705,0 -0.64093,0.36445 -0.13824,0.2702 -0.13824,0.81687 0,0.54668 0.13824,0.81687 0.182225,0.36445 0.64093,0.36445 0.458705,0 0.64093,-0.36445 0.131956,-0.27019 0.131956,-0.81687 z m 6.333879,-0.50269 -0.0063,0.25135 q -0.0063,0.28904 -0.0377,0.50269 -0.08797,0.57181 -0.395868,0.87971 -0.41472,0.41472 -1.131054,0.41472 h -1.533205 v -4.47395 h 1.533205 q 0.716334,0 1.131054,0.41472 0.307898,0.3079 0.395868,0.82944 0.03142,0.20108 0.0377,0.47127 l 0.0063,0.2325 z m -0.477556,-0.64721 q -0.0063,-0.22621 -0.03142,-0.39587 -0.06284,-0.41472 -0.263913,-0.62836 -0.320465,-0.32675 -0.879708,-0.32675 h -0.973963 v 3.61937 h 0.973963 q 0.559243,0 0.879708,-0.32675 0.201076,-0.21364 0.263913,-0.68492 0.02513,-0.17594 0.03142,-0.421 z m 3.248628,0.19479 q -0.226211,-0.22621 -0.534109,-0.22621 -0.333032,0 -0.540392,0.23878 -0.201076,0.23249 -0.201076,0.59066 v 1.89766 h -0.452421 v -3.09155 h 0.452421 v 0.37702 q 0.270196,-0.41472 0.867141,-0.41472 0.452421,0 0.741468,0.28904 z m 0.892272,-1.47037 v -0.50897 h 0.508974 v 0.50897 z m 0.02513,3.97126 v -3.09155 h 0.452422 v 3.09155 z m 2.626548,0 h -0.402153 l -1.131053,-3.09155 h 0.490123 l 0.842007,2.48203 0.84829,-2.48203 h 0.490123 z m 1.991898,-1.42639 q 0,0.50898 0.232494,0.78546 0.238778,0.28276 0.678632,0.28276 0.458705,0 0.810588,-0.35188 l 0.307898,0.27019 q -0.477556,0.47756 -1.131053,0.47756 -0.634647,0 -0.980247,-0.3833 -0.370734,-0.40216 -0.370734,-1.20018 0,-0.74775 0.339316,-1.16875 0.339316,-0.41472 0.929978,-0.41472 0.596944,0 0.93626,0.40215 0.333033,0.40215 0.333033,1.09335 v 0.20736 z m 1.633743,-0.33931 q -0.01885,-0.32675 -0.09425,-0.51526 -0.194793,-0.46499 -0.722617,-0.46499 -0.527825,0 -0.722618,0.46499 -0.0754,0.18851 -0.09425,0.51526 z m 3.14181,-0.73519 q -0.226211,-0.22621 -0.534109,-0.22621 -0.333032,0 -0.540392,0.23878 -0.201076,0.23249 -0.201076,0.59066 v 1.89766 h -0.452421 v -3.09155 h 0.452421 v 0.37702 q 0.270196,-0.41472 0.867141,-0.41472 0.452421,0 0.741468,0.28904 z m 4.700141,2.07988 q -0.427287,0.45871 -1.017948,0.45871 -0.609512,0 -0.973962,-0.39587 -0.395869,-0.421 -0.395869,-1.18761 0,-0.7666 0.395869,-1.1876 0.36445,-0.39587 0.973962,-0.39587 0.590661,0 1.017948,0.4587 l -0.307898,0.28905 q -0.314181,-0.3456 -0.71005,-0.3456 -0.471272,0 -0.716334,0.35188 -0.201076,0.28277 -0.201076,0.82944 0,0.54668 0.201076,0.82944 0.245062,0.35188 0.716334,0.35188 0.389585,0 0.71005,-0.35188 z m 2.538582,0.42101 v -0.29534 q -0.333032,0.33304 -0.892275,0.33304 -0.596945,0 -0.873425,-0.28277 -0.232494,-0.23249 -0.232494,-0.62836 0,-0.41472 0.27648,-0.64721 0.282763,-0.24506 0.791737,-0.24506 h 0.929977 v -0.29534 q 0,-0.67863 -0.791737,-0.67863 -0.527825,0 -0.77917,0.35189 l -0.307898,-0.28277 q 0.201076,-0.25763 0.464989,-0.36445 0.238777,-0.0942 0.628363,-0.0942 1.237875,0 1.237875,1.03051 v 2.09874 z m 0,-1.42639 h -0.867141 q -0.691199,0 -0.691199,0.54668 0,0.52782 0.71005,0.52782 0.477556,0 0.691199,-0.20736 0.157091,-0.1508 0.157091,-0.53411 z m 4.00895,-0.11939 q 0,0.93626 -0.377018,1.31328 -0.270196,0.2702 -0.754035,0.2702 -0.559243,0 -0.873425,-0.40844 v 0.37074 h -0.452421 v -4.47395 h 0.452421 v 1.74057 q 0.307898,-0.39587 0.873425,-0.39587 0.483839,0 0.754035,0.27019 0.377018,0.37702 0.377018,1.31328 z m -0.452421,0 q 0,-0.54667 -0.131956,-0.81687 -0.182226,-0.36445 -0.640931,-0.36445 -0.458705,0 -0.64093,0.36445 -0.13824,0.2702 -0.13824,0.81687 0,0.54668 0.13824,0.81687 0.182225,0.36445 0.64093,0.36445 0.458705,0 0.640931,-0.36445 0.131956,-0.27019 0.131956,-0.81687 z m 1.394952,-2.42548 v -0.50897 h 0.508974 v 0.50897 z m 0.02513,3.97126 v -3.09155 h 0.452422 v 3.09155 z m 3.569092,0 v -1.90394 q 0,-0.82316 -0.760319,-0.82316 -0.358167,0 -0.559243,0.20736 -0.20736,0.21993 -0.20736,0.6158 v 1.90394 h -0.452421 v -3.09155 h 0.452421 v 0.33932 q 0.333032,-0.37702 0.867141,-0.37702 0.50269,0 0.791737,0.28904 0.320465,0.31419 0.320465,0.86086 v 1.97935 z"
       id="text8"
       aria-label="Nose and Driver cabin" /><path
       style="fill:none;stroke:#000000;stroke-width:0.5;stroke-linejoin:round;stroke-miterlimit:3.9;stroke-dasharray:none;marker-start:url(#marker9);marker-end:url(#DartArrow)"
       d="M -111.96035,210.13941 H 155.19948"
       id="path8"
       sodipodi:nodetypes="cc" /><path
       style="font-size:6.27944px;font-family:DIN;-inkscape-font-specification:DIN;text-align:center;letter-spacing:0px;word-spacing:0px;text-anchor:middle;stroke-width:1.01291;stroke-linejoin:round;stroke-miterlimit:3.9"
       d="m 7.5567704,216.62196 v -0.40188 l 1.7645226,-2.24176 q 0.2511776,-0.32653 0.2511776,-0.65934 0,-0.36421 -0.2072215,-0.58399 -0.2072215,-0.21978 -0.571429,-0.21978 -0.3390898,0 -0.5463113,0.18838 -0.2323393,0.2135 -0.2323393,0.62167 H 7.5630499 q 0,-0.53375 0.3328103,-0.87284 0.3453692,-0.33909 0.8979599,-0.33909 0.5525907,0 0.8916805,0.32653 0.3390894,0.33281 0.3390894,0.87912 0,0.44584 -0.3579278,0.90424 l -1.5635805,1.99686 H 10.02459 v 0.40188 z m 4.2574566,0 h -0.477238 l 1.551022,-4.06907 H 11.33071 v 0.70329 H 10.884869 V 212.151 h 2.480379 v 0.40189 z m 2.423859,0.90424 v -1.45683 h 0.552591 v 0.96076 z m 3.993724,-2.12245 q 0,0.59655 -0.383046,0.94192 -0.357928,0.32025 -0.929357,0.32025 -0.55887,0 -0.904239,-0.28885 -0.383046,-0.3077 -0.408164,-0.89169 h 0.45212 q 0.02512,0.39561 0.282575,0.59655 0.226059,0.18211 0.577708,0.18211 0.370487,0 0.609106,-0.22606 0.251177,-0.23862 0.251177,-0.64051 0,-0.86656 -0.879121,-0.86656 h -0.09419 v -0.3956 h 0.09419 q 0.797489,0 0.797489,-0.81005 0,-0.38933 -0.22606,-0.60911 -0.213501,-0.20722 -0.552591,-0.20722 -0.351649,0 -0.55887,0.20094 -0.213501,0.20094 -0.244898,0.54631 h -0.45212 q 0.03768,-0.53375 0.395605,-0.84772 0.339089,-0.30141 0.860283,-0.30141 0.546311,0 0.89168,0.33281 0.33909,0.33281 0.33909,0.87912 0,0.71585 -0.602826,0.99215 0.684459,0.25746 0.684459,1.09262 z m 3.290422,-0.25745 q 0,0.82888 -0.357928,1.18681 -0.33281,0.33281 -0.89168,0.33281 -0.577709,0 -0.89796,-0.32025 -0.276295,-0.28258 -0.313972,-0.77865 h 0.45212 q 0.08791,0.69702 0.759812,0.69702 0.345369,0 0.55259,-0.20723 0.156986,-0.15698 0.207222,-0.42072 0.03768,-0.17582 0.03768,-0.48979 0,-1.08635 -0.753533,-1.08635 -0.596547,0 -0.740974,0.43956 H 19.167442 V 212.151 h 2.260599 v 0.40189 h -1.852435 v 1.41915 q 0.276295,-0.30769 0.803768,-0.30769 0.489797,0 0.772371,0.28257 0.370487,0.37049 0.370487,1.19938 z m 3.240187,0.28257 q 0,0.54631 -0.351648,0.89168 -0.34537,0.33909 -0.872843,0.33909 -0.527473,0 -0.872842,-0.33909 -0.351648,-0.34537 -0.351648,-0.89168 v -2.08477 q 0,-0.54632 0.351648,-0.89168 0.345369,-0.33909 0.872842,-0.33909 0.527473,0 0.872843,0.33909 0.351648,0.34536 0.351648,0.89168 z M 24.3103,213.36921 q 0,-0.37676 -0.200943,-0.6091 -0.207221,-0.2449 -0.571429,-0.2449 -0.364207,0 -0.571429,0.2449 -0.200942,0.23234 -0.200942,0.6091 v 2.03454 q 0,0.37677 0.200942,0.60911 0.207222,0.2449 0.571429,0.2449 0.364208,0 0.571429,-0.2449 0.200943,-0.23234 0.200943,-0.60911 z m 5.400313,3.25275 v -1.90267 q 0,-0.8226 -0.759812,-0.8226 -0.34537,0 -0.552591,0.20094 -0.219781,0.2135 -0.219781,0.57143 v 1.9529 H 27.72631 v -1.90267 q 0,-0.8226 -0.759812,-0.8226 -0.357929,0 -0.558871,0.20722 -0.213501,0.21978 -0.213501,0.61538 v 1.90267 h -0.452119 v -3.08948 h 0.452119 v 0.33909 q 0.332811,-0.37677 0.872843,-0.37677 0.659341,0 0.948195,0.51492 0.364207,-0.51492 1.017269,-0.51492 0.496076,0 0.797489,0.28886 0.33281,0.32025 0.33281,0.86028 v 1.97802 z m 5.519626,0 v -1.90267 q 0,-0.8226 -0.759812,-0.8226 -0.345369,0 -0.552591,0.20094 -0.21978,0.2135 -0.21978,0.57143 v 1.9529 h -0.45212 v -1.90267 q 0,-0.8226 -0.759812,-0.8226 -0.357928,0 -0.55887,0.20722 -0.213501,0.21978 -0.213501,0.61538 v 1.90267 h -0.45212 v -3.08948 h 0.45212 v 0.33909 q 0.33281,-0.37677 0.872842,-0.37677 0.659341,0 0.948196,0.51492 0.364207,-0.51492 1.017269,-0.51492 0.496076,0 0.797489,0.28886 0.33281,0.32025 0.33281,0.86028 v 1.97802 z"
       id="text9"
       aria-label="27,350mm" /><path
       style="fill:none;stroke:#000000;stroke-width:0.5;stroke-linejoin:round;stroke-miterlimit:3.9;stroke-dasharray:none;marker-start:url(#marker9);marker-end:url(#DartArrow)"
       d="M -37.71177,158.96907 H 120.2689"
       id="path10"
       sodipodi:nodetypes="cc" /><path
       style="font-size:6.27944px;font-family:DIN;-inkscape-font-specification:DIN;text-align:center;letter-spacing:0px;word-spacing:0px;text-anchor:middle;stroke-width:1.01291;stroke-linejoin:round;stroke-miterlimit:3.9"
       d="m 28.229902,154.39522 v -3.96861 l -0.835166,0.7347 v -0.51492 l 0.835166,-0.72213 h 0.452119 v 4.47096 z m 4.54631,-1.28729 q 0,0.57771 -0.33281,0.9482 -0.345369,0.37676 -0.90424,0.37676 -0.565149,0 -0.904239,-0.35164 -0.33909,-0.35165 -0.33909,-0.93564 0,-0.43956 0.282575,-1.00471 l 1.098902,-2.21664 h 0.464679 l -0.998431,2.00942 q 0.207221,-0.0942 0.470958,-0.0942 0.521193,0 0.841445,0.35792 0.320251,0.35165 0.320251,0.91052 z m -0.45212,0.0188 q 0,-0.38932 -0.200942,-0.6405 -0.21978,-0.26374 -0.590267,-0.26374 -0.357928,0 -0.571429,0.2449 -0.213501,0.2449 -0.213501,0.65934 0,0.40816 0.213501,0.65934 0.213501,0.2449 0.571429,0.2449 0.357928,0 0.577708,-0.2449 0.213501,-0.25118 0.213501,-0.65934 z m 1.394032,2.17269 v -1.45683 h 0.552591 v 0.96075 z m 3.58556,-1.61382 v 0.70958 h -0.44584 v -0.70958 h -1.783361 v -0.40816 l 1.613816,-3.35322 h 0.483517 L 35.558,153.27748 h 1.299844 v -1.26845 h 0.44584 v 1.26845 h 0.546311 v 0.40816 z m 3.686027,-0.50863 q 0,0.59654 -0.383046,0.94191 -0.357928,0.32025 -0.929357,0.32025 -0.55887,0 -0.904239,-0.28885 -0.383046,-0.30769 -0.408164,-0.89168 h 0.45212 q 0.02512,0.3956 0.282575,0.59655 0.22606,0.1821 0.577708,0.1821 0.370487,0 0.609106,-0.22606 0.251177,-0.23862 0.251177,-0.6405 0,-0.86657 -0.879121,-0.86657 h -0.09419 v -0.3956 h 0.09419 q 0.797489,0 0.797489,-0.81005 0,-0.38932 -0.22606,-0.6091 -0.213501,-0.20723 -0.552591,-0.20723 -0.351648,0 -0.55887,0.20095 -0.213501,0.20094 -0.244898,0.54631 h -0.45212 q 0.03768,-0.53375 0.395605,-0.84773 0.33909,-0.30141 0.860283,-0.30141 0.546311,0 0.891681,0.33281 0.339089,0.33281 0.339089,0.87912 0,0.71586 -0.602826,0.99215 0.684459,0.25746 0.684459,1.09263 z m 3.252746,0.0251 q 0,0.54632 -0.351649,0.89168 -0.345369,0.33909 -0.872842,0.33909 -0.527473,0 -0.872842,-0.33909 -0.351649,-0.34536 -0.351649,-0.89168 v -2.08477 q 0,-0.54631 0.351649,-0.89168 0.345369,-0.33909 0.872842,-0.33909 0.527473,0 0.872842,0.33909 0.351649,0.34537 0.351649,0.89168 z m -0.45212,-2.05965 q 0,-0.37677 -0.200942,-0.60911 -0.207221,-0.2449 -0.571429,-0.2449 -0.364207,0 -0.571429,0.2449 -0.200942,0.23234 -0.200942,0.60911 v 2.03454 q 0,0.37676 0.200942,0.6091 0.207222,0.2449 0.571429,0.2449 0.364208,0 0.571429,-0.2449 0.200942,-0.23234 0.200942,-0.6091 z m 5.400313,3.25275 v -1.90267 q 0,-0.82261 -0.759812,-0.82261 -0.345369,0 -0.552591,0.20094 -0.21978,0.2135 -0.21978,0.57143 v 1.95291 h -0.45212 v -1.90267 q 0,-0.82261 -0.759812,-0.82261 -0.357928,0 -0.55887,0.20722 -0.213501,0.21978 -0.213501,0.61539 v 1.90267 h -0.45212 v -3.08949 h 0.45212 v 0.33909 q 0.33281,-0.37676 0.872842,-0.37676 0.659341,0 0.948196,0.51491 0.364207,-0.51491 1.017269,-0.51491 0.496076,0 0.797489,0.28885 0.33281,0.32025 0.33281,0.86028 v 1.97803 z m 5.519627,0 v -1.90267 q 0,-0.82261 -0.759812,-0.82261 -0.345369,0 -0.552591,0.20094 -0.21978,0.2135 -0.21978,0.57143 v 1.95291 h -0.45212 v -1.90267 q 0,-0.82261 -0.759812,-0.82261 -0.357928,0 -0.55887,0.20722 -0.213501,0.21978 -0.213501,0.61539 v 1.90267 h -0.45212 v -3.08949 h 0.45212 v 0.33909 q 0.33281,-0.37676 0.872842,-0.37676 0.659341,0 0.948195,0.51491 0.364208,-0.51491 1.01727,-0.51491 0.496075,0 0.797488,0.28885 0.332811,0.32025 0.332811,0.86028 v 1.97803 z"
       id="text10"
       aria-label="16,430mm" /><path
       style="fill:none;stroke:#000000;stroke-width:0.5;stroke-linejoin:round;stroke-miterlimit:3.9;stroke-dasharray:none;marker-start:url(#marker9);marker-end:url(#DartArrow)"
       d="m 121.26869,166.90776 v 26.33427"
       id="path11"
       sodipodi:nodetypes="cc" /><path
       style="font-size:6.27944px;font-family:DIN;-inkscape-font-specification:DIN;text-align:center;letter-spacing:0px;word-spacing:0px;text-anchor:middle;stroke-width:1.01291;stroke-linejoin:round;stroke-miterlimit:3.9"
       d="m 96.396176,180.60685 q 0,0.59654 -0.383046,0.94191 -0.357928,0.32025 -0.929357,0.32025 -0.55887,0 -0.904239,-0.28885 -0.383046,-0.30769 -0.408164,-0.89168 h 0.45212 q 0.02512,0.3956 0.282575,0.59655 0.22606,0.1821 0.577708,0.1821 0.370487,0 0.609106,-0.22606 0.251178,-0.23862 0.251178,-0.6405 0,-0.86657 -0.879122,-0.86657 h -0.09419 v -0.3956 h 0.09419 q 0.797489,0 0.797489,-0.81005 0,-0.38932 -0.22606,-0.6091 -0.213501,-0.20723 -0.552591,-0.20723 -0.351648,0 -0.55887,0.20095 -0.213501,0.20094 -0.244898,0.54631 h -0.45212 q 0.03768,-0.53375 0.395605,-0.84773 0.33909,-0.30141 0.860283,-0.30141 0.546312,0 0.891681,0.33281 0.33909,0.33281 0.33909,0.87912 0,0.71586 -0.602827,0.99215 0.684459,0.25746 0.684459,1.09263 z m 0.941912,2.12245 v -1.45683 h 0.552591 v 0.96075 z m 3.993722,-2.12245 q 0,0.59654 -0.38304,0.94191 -0.35793,0.32025 -0.92936,0.32025 -0.558872,0 -0.904241,-0.28885 -0.383046,-0.30769 -0.408164,-0.89168 h 0.45212 q 0.02512,0.3956 0.282575,0.59655 0.22606,0.1821 0.57771,0.1821 0.37049,0 0.6091,-0.22606 0.25118,-0.23862 0.25118,-0.6405 0,-0.86657 -0.87912,-0.86657 h -0.09419 v -0.3956 h 0.09419 q 0.79749,0 0.79749,-0.81005 0,-0.38932 -0.22606,-0.6091 -0.2135,-0.20723 -0.55259,-0.20723 -0.35165,0 -0.558872,0.20095 -0.213501,0.20094 -0.244898,0.54631 h -0.45212 q 0.03768,-0.53375 0.395605,-0.84773 0.33909,-0.30141 0.860285,-0.30141 0.54631,0 0.89168,0.33281 0.33909,0.33281 0.33909,0.87912 0,0.71586 -0.60283,0.99215 0.68446,0.25746 0.68446,1.09263 z m 2.00942,1.21821 v -3.96861 l -0.83517,0.7347 v -0.51492 l 0.83517,-0.72213 h 0.45212 v 4.47096 z m 4.52119,-1.1931 q 0,0.54632 -0.35165,0.89168 -0.34537,0.33909 -0.87284,0.33909 -0.52747,0 -0.87284,-0.33909 -0.35165,-0.34536 -0.35165,-0.89168 v -2.08477 q 0,-0.54631 0.35165,-0.89168 0.34537,-0.33909 0.87284,-0.33909 0.52747,0 0.87284,0.33909 0.35165,0.34537 0.35165,0.89168 z m -0.45212,-2.05965 q 0,-0.37677 -0.20094,-0.60911 -0.20722,-0.2449 -0.57143,-0.2449 -0.36421,0 -0.57143,0.2449 -0.20094,0.23234 -0.20094,0.60911 v 2.03454 q 0,0.37676 0.20094,0.6091 0.20722,0.2449 0.57143,0.2449 0.36421,0 0.57143,-0.2449 0.20094,-0.23234 0.20094,-0.6091 z m 5.40032,3.25275 v -1.90267 q 0,-0.82261 -0.75982,-0.82261 -0.34537,0 -0.55259,0.20094 -0.21978,0.2135 -0.21978,0.57143 v 1.95291 h -0.45212 v -1.90267 q 0,-0.82261 -0.75981,-0.82261 -0.35793,0 -0.55887,0.20722 -0.2135,0.21978 -0.2135,0.61539 v 1.90267 h -0.45212 v -3.08949 h 0.45212 v 0.33909 q 0.33281,-0.37676 0.87284,-0.37676 0.65934,0 0.9482,0.51491 0.3642,-0.51491 1.01727,-0.51491 0.49607,0 0.79748,0.28885 0.33282,0.32025 0.33282,0.86028 v 1.97803 z m 5.51962,0 v -1.90267 q 0,-0.82261 -0.75981,-0.82261 -0.34537,0 -0.55259,0.20094 -0.21978,0.2135 -0.21978,0.57143 v 1.95291 h -0.45212 v -1.90267 q 0,-0.82261 -0.75981,-0.82261 -0.35793,0 -0.55888,0.20722 -0.2135,0.21978 -0.2135,0.61539 v 1.90267 h -0.45212 v -3.08949 h 0.45212 v 0.33909 q 0.33281,-0.37676 0.87285,-0.37676 0.65934,0 0.94819,0.51491 0.36421,-0.51491 1.01727,-0.51491 0.49608,0 0.79749,0.28885 0.33281,0.32025 0.33281,0.86028 v 1.97803 z"
       id="text11"
       aria-label="3,310mm" /><path
       style="fill:none;stroke:#000000;stroke-width:0.5;stroke-linejoin:round;stroke-miterlimit:3.9;stroke-dasharray:none;marker-start:url(#marker9);marker-end:url(#DartArrow)"
       d="m 126.8573,158.96907 h 28.56203"
       id="path12"
       sodipodi:nodetypes="cc" /><path
       style="font-size:6.27944px;font-family:DIN;-inkscape-font-specification:DIN;text-align:center;letter-spacing:0px;word-spacing:0px;text-anchor:middle;stroke-width:1.01291;stroke-linejoin:round;stroke-miterlimit:3.9"
       d="m 130.99703,153.17701 q 0,0.59654 -0.38305,0.94191 -0.35792,0.32025 -0.92935,0.32025 -0.55887,0 -0.90424,-0.28885 -0.38305,-0.30769 -0.40817,-0.89168 h 0.45212 q 0.0251,0.3956 0.28258,0.59655 0.22606,0.1821 0.57771,0.1821 0.37048,0 0.6091,-0.22606 0.25118,-0.23862 0.25118,-0.6405 0,-0.86657 -0.87912,-0.86657 h -0.0942 v -0.3956 h 0.0942 q 0.79749,0 0.79749,-0.81005 0,-0.38932 -0.22606,-0.6091 -0.2135,-0.20723 -0.55259,-0.20723 -0.35165,0 -0.55887,0.20095 -0.2135,0.20094 -0.2449,0.54631 h -0.45212 q 0.0377,-0.53375 0.3956,-0.84773 0.33909,-0.30141 0.86029,-0.30141 0.54631,0 0.89168,0.33281 0.33909,0.33281 0.33909,0.87912 0,0.71586 -0.60283,0.99215 0.68446,0.25746 0.68446,1.09263 z m 0.94191,2.12245 v -1.45683 h 0.55259 v 0.96075 z m 3.58556,-1.61382 v 0.70958 h -0.44584 v -0.70958 h -1.78336 v -0.40816 l 1.61382,-3.35322 h 0.48351 l -1.61381,3.35322 h 1.29984 v -1.26845 h 0.44584 v 1.26845 h 0.54631 v 0.40816 z m 3.7551,-0.52119 q 0,0.55887 -0.38304,0.9168 -0.37049,0.35164 -0.93564,0.35164 -0.56515,0 -0.93564,-0.35164 -0.38304,-0.35793 -0.38304,-0.9168 0,-0.7033 0.6719,-1.08635 -0.58399,-0.33281 -0.58399,-0.99215 0,-0.52119 0.35165,-0.86028 0.34537,-0.33909 0.87912,-0.33909 0.53375,0 0.87912,0.33909 0.35165,0.33909 0.35165,0.86028 0,0.65934 -0.57771,0.99215 0.66562,0.37677 0.66562,1.08635 z m -0.54003,-2.07222 q 0,-0.35165 -0.21978,-0.57771 -0.2135,-0.22606 -0.55887,-0.22606 -0.34537,0 -0.55887,0.22606 -0.21978,0.22606 -0.21978,0.57771 0,0.35165 0.21978,0.57771 0.2135,0.21978 0.55887,0.21978 0.34537,0 0.55887,-0.21978 0.21978,-0.22606 0.21978,-0.57771 z m 0.0879,2.06594 q 0,-0.37049 -0.25118,-0.62167 -0.24489,-0.25117 -0.61538,-0.25117 -0.37049,0 -0.61539,0.25117 -0.25117,0.25118 -0.25117,0.62167 0,0.37049 0.25117,0.62166 0.2449,0.25118 0.61539,0.25118 0.37049,0 0.61538,-0.25118 0.25118,-0.25117 0.25118,-0.62166 z m 3.63579,0.0439 q 0,0.54632 -0.35164,0.89168 -0.34537,0.33909 -0.87285,0.33909 -0.52747,0 -0.87284,-0.33909 -0.35165,-0.34536 -0.35165,-0.89168 v -2.08477 q 0,-0.54631 0.35165,-0.89168 0.34537,-0.33909 0.87284,-0.33909 0.52748,0 0.87285,0.33909 0.35164,0.34537 0.35164,0.89168 z m -0.45212,-2.05965 q 0,-0.37677 -0.20094,-0.60911 -0.20722,-0.2449 -0.57143,-0.2449 -0.3642,0 -0.57143,0.2449 -0.20094,0.23234 -0.20094,0.60911 v 2.03454 q 0,0.37676 0.20094,0.6091 0.20723,0.2449 0.57143,0.2449 0.36421,0 0.57143,-0.2449 0.20094,-0.23234 0.20094,-0.6091 z m 5.40032,3.25275 v -1.90267 q 0,-0.82261 -0.75981,-0.82261 -0.34537,0 -0.55259,0.20094 -0.21978,0.2135 -0.21978,0.57143 v 1.95291 h -0.45212 v -1.90267 q 0,-0.82261 -0.75982,-0.82261 -0.35792,0 -0.55887,0.20722 -0.2135,0.21978 -0.2135,0.61539 v 1.90267 h -0.45212 v -3.08949 h 0.45212 v 0.33909 q 0.33281,-0.37676 0.87284,-0.37676 0.65935,0 0.9482,0.51491 0.36421,-0.51491 1.01727,-0.51491 0.49607,0 0.79749,0.28885 0.33281,0.32025 0.33281,0.86028 v 1.97803 z m 5.51962,0 v -1.90267 q 0,-0.82261 -0.75981,-0.82261 -0.34537,0 -0.55259,0.20094 -0.21978,0.2135 -0.21978,0.57143 v 1.95291 h -0.45212 v -1.90267 q 0,-0.82261 -0.75981,-0.82261 -0.35793,0 -0.55887,0.20722 -0.2135,0.21978 -0.2135,0.61539 v 1.90267 h -0.45212 v -3.08949 h 0.45212 v 0.33909 q 0.33281,-0.37676 0.87284,-0.37676 0.65934,0 0.94819,0.51491 0.36421,-0.51491 1.01727,-0.51491 0.49608,0 0.79749,0.28885 0.33281,0.32025 0.33281,0.86028 v 1.97803 z"
       id="text12"
       aria-label="3,480mm" /><path
       style="fill:none;stroke:#000000;stroke-width:0.5;stroke-linejoin:round;stroke-miterlimit:3.9;stroke-dasharray:none;marker-start:url(#marker9);marker-end:url(#DartArrow)"
       d="M -17.059814,200.27298 H 120.2689"
       id="path13"
       sodipodi:nodetypes="cc" /><path
       style="font-size:6.27944px;font-family:DIN;-inkscape-font-specification:DIN;text-align:center;letter-spacing:0px;word-spacing:0px;text-anchor:middle;stroke-width:1.01291;stroke-linejoin:round;stroke-miterlimit:3.9"
       d="m 38.816476,206.7813 v -3.96861 l -0.835165,0.73469 v -0.51491 l 0.835165,-0.72214 h 0.45212 v 4.47097 z m 4.138147,-0.70958 v 0.70958 h -0.44584 v -0.70958 h -1.783361 v -0.40816 l 1.613816,-3.35323 h 0.483517 l -1.613816,3.35323 h 1.299844 v -1.26845 h 0.44584 v 1.26845 h 0.546311 v 0.40816 z m 1.350075,1.61382 v -1.45683 h 0.552591 v 0.96075 z m 3.993724,-2.12246 q 0,0.59655 -0.383046,0.94192 -0.357928,0.32025 -0.929357,0.32025 -0.55887,0 -0.904239,-0.28885 -0.383046,-0.30769 -0.408164,-0.89168 h 0.45212 q 0.02512,0.3956 0.282575,0.59654 0.22606,0.18211 0.577708,0.18211 0.370487,0 0.609106,-0.22606 0.251178,-0.23862 0.251178,-0.64051 0,-0.86656 -0.879122,-0.86656 h -0.09419 v -0.3956 h 0.09419 q 0.797489,0 0.797489,-0.81005 0,-0.38933 -0.22606,-0.60911 -0.213501,-0.20722 -0.552591,-0.20722 -0.351648,0 -0.55887,0.20094 -0.213501,0.20095 -0.244898,0.54632 h -0.45212 q 0.03768,-0.53376 0.395605,-0.84773 0.33909,-0.30141 0.860283,-0.30141 0.546312,0 0.891681,0.33281 0.339089,0.33281 0.339089,0.87912 0,0.71586 -0.602826,0.99215 0.684459,0.25746 0.684459,1.09262 z m 3.290423,-0.25745 q 0,0.82888 -0.357929,1.18681 -0.33281,0.33281 -0.89168,0.33281 -0.577708,0 -0.89796,-0.32025 -0.276295,-0.28257 -0.313972,-0.77865 h 0.45212 q 0.08791,0.69702 0.759812,0.69702 0.345369,0 0.552591,-0.20722 0.156986,-0.15699 0.207221,-0.42073 0.03768,-0.17582 0.03768,-0.48979 0,-1.08635 -0.753533,-1.08635 -0.596547,0 -0.740974,0.43957 h -0.408163 v -2.34852 h 2.260598 v 0.40189 h -1.852435 v 1.41915 q 0.276296,-0.30769 0.803768,-0.30769 0.489797,0 0.772372,0.28257 0.370487,0.37049 0.370487,1.19938 z m 3.240186,0.28257 q 0,0.54631 -0.351648,0.89168 -0.345369,0.33909 -0.872842,0.33909 -0.527473,0 -0.872843,-0.33909 -0.351648,-0.34537 -0.351648,-0.89168 v -2.08477 q 0,-0.54631 0.351648,-0.89168 0.34537,-0.33909 0.872843,-0.33909 0.527473,0 0.872842,0.33909 0.351648,0.34537 0.351648,0.89168 z m -0.452119,-2.05965 q 0,-0.37677 -0.200942,-0.60911 -0.207222,-0.2449 -0.571429,-0.2449 -0.364208,0 -0.571429,0.2449 -0.200942,0.23234 -0.200942,0.60911 v 2.03453 q 0,0.37677 0.200942,0.60911 0.207221,0.2449 0.571429,0.2449 0.364207,0 0.571429,-0.2449 0.200942,-0.23234 0.200942,-0.60911 z m 5.400313,3.25275 v -1.90267 q 0,-0.82261 -0.759812,-0.82261 -0.345369,0 -0.552591,0.20094 -0.21978,0.2135 -0.21978,0.57143 v 1.95291 h -0.45212 v -1.90267 q 0,-0.82261 -0.759812,-0.82261 -0.357928,0 -0.55887,0.20722 -0.213501,0.21978 -0.213501,0.61539 v 1.90267 h -0.45212 v -3.08949 h 0.45212 v 0.33909 q 0.33281,-0.37677 0.872842,-0.37677 0.659341,0 0.948195,0.51492 0.364208,-0.51492 1.017269,-0.51492 0.496076,0 0.797489,0.28886 0.332811,0.32025 0.332811,0.86028 v 1.97803 z m 5.519627,0 v -1.90267 q 0,-0.82261 -0.759813,-0.82261 -0.345369,0 -0.55259,0.20094 -0.219781,0.2135 -0.219781,0.57143 v 1.95291 h -0.452119 v -1.90267 q 0,-0.82261 -0.759813,-0.82261 -0.357928,0 -0.55887,0.20722 -0.213501,0.21978 -0.213501,0.61539 v 1.90267 h -0.452119 v -3.08949 h 0.452119 v 0.33909 q 0.332811,-0.37677 0.872842,-0.37677 0.659342,0 0.948196,0.51492 0.364207,-0.51492 1.017269,-0.51492 0.496076,0 0.797489,0.28886 0.33281,0.32025 0.33281,0.86028 v 1.97803 z"
       id="text13"
       aria-label="14,350mm" /><rect
       style="fill:none;stroke:#000000;stroke-width:0.644351;stroke-linejoin:round;stroke-miterlimit:3.9;stroke-dasharray:none"
       id="rect13"
       width="10.195539"
       height="32.556229"
       x="-40.577206"
       y="163.72438" /><path
       style="font-size:6.28363px;font-family:DIN;-inkscape-font-specification:DIN;text-align:center;letter-spacing:0px;word-spacing:0px;text-anchor:middle;stroke-width:0.644351;stroke-linejoin:round;stroke-miterlimit:3.9"
       d="m -190.74432,-23.577446 h -0.38959 l -1.47037,-4.473944 h 0.50269 l 1.16247,3.61937 1.16248,-3.61937 h 0.50269 z m 2.11757,-1.426384 q 0,0.508974 0.2325,0.785454 0.23877,0.282763 0.67863,0.282763 0.4587,0 0.81059,-0.351883 l 0.30789,0.270196 q -0.47755,0.477556 -1.13105,0.477556 -0.63465,0 -0.98025,-0.383302 -0.37073,-0.402152 -0.37073,-1.200173 0,-0.747752 0.33932,-1.168755 0.33931,-0.41472 0.92997,-0.41472 0.59695,0 0.93626,0.402153 0.33304,0.402152 0.33304,1.093351 v 0.20736 z m 1.63374,-0.339316 q -0.0189,-0.326749 -0.0942,-0.515258 -0.19479,-0.464988 -0.72262,-0.464988 -0.52782,0 -0.72261,0.464988 -0.0754,0.188509 -0.0943,0.515258 z m 3.6445,0.860857 q 0,0.439854 -0.3456,0.697483 -0.33931,0.245062 -0.91112,0.245062 -0.80431,0 -1.2693,-0.446138 l 0.30162,-0.301614 q 0.33931,0.358167 0.96139,0.358167 0.82316,0 0.82316,-0.546676 0,-0.408436 -0.51526,-0.452421 l -0.50897,-0.04399 q -0.9237,-0.0754 -0.9237,-0.829439 0,-0.41472 0.32047,-0.666065 0.31418,-0.238778 0.81687,-0.238778 0.70377,0 1.1122,0.333033 l -0.29533,0.29533 q -0.32046,-0.245061 -0.82315,-0.245061 -0.6912,0 -0.6912,0.508974 0,0.408436 0.54039,0.452421 l 0.49641,0.04399 q 0.91112,0.08169 0.91112,0.835722 z m 1.69029,0.904843 q -0.3833,0 -0.59066,-0.245062 -0.20108,-0.219927 -0.20108,-0.584377 v -1.897656 h -0.38958 v -0.3456 h 0.38958 v -0.967679 h 0.45242 v 0.967679 h 0.65978 v 0.3456 h -0.65978 v 1.885089 q 0,0.452421 0.421,0.452421 h 0.23878 v 0.389585 z m 1.19388,-3.971254 v -0.508974 h 0.50897 v 0.508974 z m 0.0251,3.971254 v -3.091546 h 0.45243 v 3.091546 z m 4.04665,-1.545773 q 0,0.936261 -0.37702,1.313279 -0.27019,0.270196 -0.75403,0.270196 -0.55925,0 -0.87343,-0.408436 v 0.370734 h -0.45242 v -4.473944 h 0.45242 v 1.740565 q 0.3079,-0.395869 0.87343,-0.395869 0.48384,0 0.75403,0.270196 0.37702,0.377018 0.37702,1.313279 z m -0.45242,0 q 0,-0.546676 -0.13196,-0.816872 -0.18222,-0.36445 -0.64093,-0.36445 -0.4587,0 -0.64093,0.36445 -0.13824,0.270196 -0.13824,0.816872 0,0.546676 0.13824,0.816872 0.18223,0.36445 0.64093,0.36445 0.45871,0 0.64093,-0.36445 0.13196,-0.270196 0.13196,-0.816872 z m 3.3743,1.545773 v -0.3456 q -0.33303,0.383302 -0.87343,0.383302 -0.50897,0 -0.79802,-0.289047 -0.31418,-0.307898 -0.31418,-0.867141 v -1.97306 h 0.45242 v 1.90394 q 0,0.823155 0.75404,0.823155 0.35816,0 0.55924,-0.207359 0.21364,-0.219927 0.21364,-0.615796 v -1.90394 h 0.45243 v 3.091546 z m 2.35006,0 q -0.38958,0 -0.59694,-0.232494 -0.18851,-0.219927 -0.18851,-0.590662 v -3.650788 h 0.45242 v 3.631938 q 0,0.452421 0.41472,0.452421 h 0.24506 v 0.389585 z m 1.21901,-1.426384 q 0,0.508974 0.2325,0.785454 0.23878,0.282763 0.67863,0.282763 0.4587,0 0.81059,-0.351883 l 0.3079,0.270196 q -0.47756,0.477556 -1.13106,0.477556 -0.63464,0 -0.98024,-0.383302 -0.37074,-0.402152 -0.37074,-1.200173 0,-0.747752 0.33932,-1.168755 0.33931,-0.41472 0.92997,-0.41472 0.59695,0 0.93627,0.402153 0.33303,0.402152 0.33303,1.093351 v 0.20736 z m 1.63375,-0.339316 q -0.0188,-0.326749 -0.0943,-0.515258 -0.19479,-0.464988 -0.72262,-0.464988 -0.52782,0 -0.72261,0.464988 -0.0754,0.188509 -0.0943,0.515258 z"
       id="text14"
       transform="rotate(-90)"
       aria-label="Vestibule" /></g><g
     inkscape:groupmode="layer"
     id="layer3"
     inkscape:label="Text"
     style="display:none"
     sodipodi:insensitive="true"><text
       xml:space="preserve"
       style="font-style:normal;font-variant:normal;font-weight:normal;font-stretch:normal;font-size:9.87777px;font-family:DIN;-inkscape-font-specification:DIN;text-align:center;letter-spacing:0px;word-spacing:0px;text-anchor:middle;fill:#000000;stroke:none;stroke-width:1.01291;stroke-linejoin:round;stroke-miterlimit:3.9;stroke-dasharray:none"
       x="30.971746"
       y="193.69633"
       id="text25"
       transform="translate(115.08535,-149.8803)"><tspan
         sodipodi:role="line"
         id="tspan25"
         style="stroke-width:1.01291"
         x="30.971746"
         y="193.69633"></tspan></text><text
       xml:space="preserve"
       style="font-size:6.28363px;font-family:Futura;-inkscape-font-specification:Futura;text-align:center;letter-spacing:0px;word-spacing:0px;text-anchor:middle;fill:#000000;stroke:none;stroke-width:0.644351;stroke-linejoin:round;stroke-miterlimit:3.9;stroke-dasharray:none"
       x="51.588261"
       y="181.56577"
       id="text26"
       transform="translate(115.08535,-149.8803)"><tspan
         sodipodi:role="line"
         id="tspan26"
         style="font-style:normal;font-variant:normal;font-weight:normal;font-stretch:normal;font-size:6.28363px;font-family:DIN;-inkscape-font-specification:DIN;fill:#000000;stroke:none;stroke-width:0.644351"
         x="51.588261"
         y="181.56577">Passenger area</tspan></text><text
       xml:space="preserve"
       style="font-size:6.28363px;font-family:Futura;-inkscape-font-specification:Futura;text-align:center;letter-spacing:0px;word-spacing:0px;text-anchor:middle;fill:#000000;stroke:none;stroke-width:0.644351;stroke-linejoin:round;stroke-miterlimit:3.9;stroke-dasharray:none"
       x="-180.03706"
       y="-33.242462"
       id="text27"
       transform="rotate(-90,-17.397475,-132.48282)"><tspan
         sodipodi:role="line"
         id="tspan27"
         style="font-style:normal;font-variant:normal;font-weight:normal;font-stretch:normal;font-size:6.28363px;font-family:DIN;-inkscape-font-specification:DIN;fill:#000000;stroke:none;stroke-width:0.644351"
         x="-180.03706"
         y="-33.242462">Staff</tspan></text><text
       xml:space="preserve"
       style="font-size:6.28363px;font-family:Futura;-inkscape-font-specification:Futura;text-align:center;letter-spacing:0px;word-spacing:0px;text-anchor:middle;fill:#000000;stroke:none;stroke-width:0.644351;stroke-linejoin:round;stroke-miterlimit:3.9;stroke-dasharray:none"
       x="141.63675"
       y="181.56577"
       id="text28"
       transform="translate(115.08535,-149.8803)"><tspan
         sodipodi:role="line"
         id="tspan28"
         style="font-style:normal;font-variant:normal;font-weight:normal;font-stretch:normal;font-size:6.28363px;font-family:DIN;-inkscape-font-specification:DIN;fill:#000000;stroke:none;stroke-width:0.644351"
         x="141.63675"
         y="181.56577">Vestibule</tspan></text><text
       xml:space="preserve"
       style="font-size:6.28363px;font-family:Futura;-inkscape-font-specification:Futura;text-align:center;letter-spacing:0px;word-spacing:0px;text-anchor:middle;fill:#000000;stroke:none;stroke-width:0.644351;stroke-linejoin:round;stroke-miterlimit:3.9;stroke-dasharray:none"
       x="-75.101418"
       y="181.56577"
       id="text29"
       transform="translate(115.08535,-149.8803)"><tspan
         sodipodi:role="line"
         id="tspan29"
         style="font-style:normal;font-variant:normal;font-weight:normal;font-stretch:normal;font-size:6.28363px;font-family:DIN;-inkscape-font-specification:DIN;fill:#000000;stroke:none;stroke-width:0.644351"
         x="-75.101418"
         y="181.56577">Nose and Driver cabin</tspan></text><text
       xml:space="preserve"
       style="font-size:6.27944px;font-family:Futura;-inkscape-font-specification:Futura;text-align:center;letter-spacing:0px;word-spacing:0px;text-anchor:middle;fill:#000000;stroke:none;stroke-width:1.01291;stroke-linejoin:round;stroke-miterlimit:3.9;stroke-dasharray:none"
       x="21.672939"
       y="216.62196"
       id="text30"
       transform="translate(115.08535,-149.8803)"><tspan
         sodipodi:role="line"
         id="tspan30"
         style="font-style:normal;font-variant:normal;font-weight:normal;font-stretch:normal;font-size:6.27944px;font-family:DIN;-inkscape-font-specification:DIN;fill:#000000;stroke:none;stroke-width:1.01291"
         x="21.672939"
         y="216.62196">27,350mm</tspan></text><text
       xml:space="preserve"
       style="font-size:6.27944px;font-family:Futura;-inkscape-font-specification:Futura;text-align:center;letter-spacing:0px;word-spacing:0px;text-anchor:middle;fill:#000000;stroke:none;stroke-width:1.01291;stroke-linejoin:round;stroke-miterlimit:3.9;stroke-dasharray:none"
       x="41.152977"
       y="154.39522"
       id="text31"
       transform="translate(115.08535,-149.8803)"><tspan
         sodipodi:role="line"
         id="tspan31"
         style="font-style:normal;font-variant:normal;font-weight:normal;font-stretch:normal;font-size:6.27944px;font-family:DIN;-inkscape-font-specification:DIN;fill:#000000;stroke:none;stroke-width:1.01291"
         x="41.152977"
         y="154.39522">16,430mm</tspan></text><text
       xml:space="preserve"
       style="font-size:6.27944px;font-family:Futura;-inkscape-font-specification:Futura;text-align:center;letter-spacing:0px;word-spacing:0px;text-anchor:middle;fill:#000000;stroke:none;stroke-width:1.01291;stroke-linejoin:round;stroke-miterlimit:3.9;stroke-dasharray:none"
       x="106.41187"
       y="181.82506"
       id="text32"
       transform="translate(115.08535,-149.8803)"><tspan
         sodipodi:role="line"
         id="tspan32"
         style="font-style:normal;font-variant:normal;font-weight:normal;font-stretch:normal;font-size:6.27944px;font-family:DIN;-inkscape-font-specification:DIN;fill:#000000;stroke:none;stroke-width:1.01291"
         x="106.41187"
         y="181.82506">3,310mm</tspan></text><text
       xml:space="preserve"
       style="font-size:6.27944px;font-family:Futura;-inkscape-font-specification:Futura;text-align:center;letter-spacing:0px;word-spacing:0px;text-anchor:middle;fill:#000000;stroke:none;stroke-width:1.01291;stroke-linejoin:round;stroke-miterlimit:3.9;stroke-dasharray:none"
       x="141.01273"
       y="154.39522"
       id="text33"
       transform="translate(115.08535,-149.8803)"><tspan
         sodipodi:role="line"
         id="tspan33"
         style="font-style:normal;font-variant:normal;font-weight:normal;font-stretch:normal;font-size:6.27944px;font-family:DIN;-inkscape-font-specification:DIN;fill:#000000;stroke:none;stroke-width:1.01291"
         x="141.01273"
         y="154.39522">3,480mm</tspan></text><text
       xml:space="preserve"
       style="font-size:6.27944px;font-family:Futura;-inkscape-font-specification:Futura;text-align:center;letter-spacing:0px;word-spacing:0px;text-anchor:middle;fill:#000000;stroke:none;stroke-width:1.01291;stroke-linejoin:round;stroke-miterlimit:3.9;stroke-dasharray:none"
       x="51.739552"
       y="206.7813"
       id="text34"
       transform="translate(115.08535,-149.8803)"><tspan
         sodipodi:role="line"
         id="tspan34"
         style="font-style:normal;font-variant:normal;font-weight:normal;font-stretch:normal;font-size:6.27944px;font-family:DIN;-inkscape-font-specification:DIN;fill:#000000;stroke:none;stroke-width:1.01291"
         x="51.739552"
         y="206.7813">14,350mm</tspan></text><text
       xml:space="preserve"
       style="font-size:6.28363px;font-family:Futura;-inkscape-font-specification:Futura;text-align:center;letter-spacing:0px;word-spacing:0px;text-anchor:middle;fill:#000000;stroke:none;stroke-width:0.644351;stroke-linejoin:round;stroke-miterlimit:3.9;stroke-dasharray:none"
       x="-180.03706"
       y="-23.577446"
       id="text35"
       transform="rotate(-90,-17.397475,-132.48282)"><tspan
         sodipodi:role="line"
         id="tspan35"
         style="font-style:normal;font-variant:normal;font-weight:normal;font-stretch:normal;font-size:6.28363px;font-family:DIN;-inkscape-font-specification:DIN;fill:#000000;stroke:none;stroke-width:0.644351"
         x="-180.03706"
         y="-23.577446">Vestibule</tspan></text></g></svg>
